<svg id="Layer_1" data-name="Layer 1" xmlns="http://www.w3.org/2000/svg" xmlns:xlink="http://www.w3.org/1999/xlink" viewBox="0 0 792 612"><defs><style>.cls-1{fill:none;}.cls-2{fill:#6eb7c0;}.cls-3{fill:#f0eede;}.cls-4{fill:#333;}.cls-5{clip-path:url(#clip-path);}.cls-6{fill:#db8336;}.cls-7{fill:#d2d2d1;}.cls-8{fill:#717171;}.cls-9{fill:#b8b8b9;}</style><clipPath id="clip-path"><path class="cls-1" d="M396.25,252.17a30.24,30.24,0,0,1,26.87,16.35,1,1,0,0,0,1.16.54l4.4-1.05a1,1,0,0,0,.7-1.44,36.69,36.69,0,0,0-66.75-.12,1,1,0,0,0,.69,1.44l4.9,1.17a1,1,0,0,0,1.15-.54A30.26,30.26,0,0,1,396.25,252.17Z"/></clipPath></defs><rect class="cls-2" x="291.01" y="226.94" width="209.99" height="102.07" rx="12"/><rect class="cls-3" x="294.83" y="230.03" width="202.34" height="95.9" rx="12"/><path class="cls-2" d="M299.87,288H492.05a2.74,2.74,0,0,1,2.74,2.74V315a8.81,8.81,0,0,1-8.81,8.81H306a8.81,8.81,0,0,1-8.81-8.81V290.61A2.66,2.66,0,0,1,299.87,288Z"/><circle class="cls-3" cx="396.45" cy="282.01" r="27.18"/><path class="cls-2" d="M438.48,273.61a1.17,1.17,0,0,0,.88-1.38,44.41,44.41,0,0,0-86.72-.13,1.16,1.16,0,0,0,.88,1.38l42.74,10.22Z"/><circle class="cls-2" cx="396.02" cy="282.58" r="23.17"/><path class="cls-3" d="M396.25,252.17a30.24,30.24,0,0,1,26.87,16.35,1,1,0,0,0,1.16.54l4.4-1.05a1,1,0,0,0,.7-1.44,36.69,36.69,0,0,0-66.75-.12,1,1,0,0,0,.69,1.44l4.9,1.17a1,1,0,0,0,1.15-.54A30.26,30.26,0,0,1,396.25,252.17Z"/><circle class="cls-4" cx="420.06" cy="271.8" r="2.25"/><g class="cls-5"><path class="cls-4" d="M416.24,267.69l-.17-.22,8.11-6.36.22.29ZM377,267l-8-6.45.24-.3,7.94,6.55Zm34.73-3.78-.21-.15,6.17-8.25.3.23Zm-30.12-.61-6.1-8.3.31-.23,6,8.37ZM406.19,260l-.25-.1,3.94-9.51.35.14Zm-19-.44-3.74-9.6.35-.13,3.64,9.63ZM400,258.19l-.29-.05L401.26,248l.35.06Zm-6.66-.17-1.11-10.24.38,0,1,10.25Z"/><path class="cls-6" d="M409.89,257.53l4.61-5.79a.21.21,0,0,1,.35.21l-2.94,6.58a.22.22,0,0,1-.29.11l-1.67-.81A.19.19,0,0,1,409.89,257.53Z"/></g><path class="cls-3" d="M424,269.41a1.35,1.35,0,0,1-1.2-.74,29.94,29.94,0,0,0-53.18,0,1.34,1.34,0,0,1-1.52.7l-4.9-1.17a1.29,1.29,0,0,1-.89-.72,1.37,1.37,0,0,1,0-1.17,37,37,0,0,1,67.34.12,1.37,1.37,0,0,1,0,1.17,1.29,1.29,0,0,1-.89.72l-4.41,1.05A1.1,1.1,0,0,1,424,269.41Zm-27.79-17.56a30.48,30.48,0,0,1,27.16,16.53.72.72,0,0,0,.79.37l4.41-1.06a.7.7,0,0,0,.47-.37.75.75,0,0,0,0-.62,36.37,36.37,0,0,0-66.16-.12.75.75,0,0,0,0,.62.72.72,0,0,0,.47.38l4.9,1.17a.73.73,0,0,0,.8-.37A30.48,30.48,0,0,1,396.25,251.85Z"/><circle class="cls-7" cx="395.47" cy="282.69" r="20.53"/><circle class="cls-4" cx="395.47" cy="282.69" r="12.55"/><path class="cls-4" d="M395.47,296.84a14.16,14.16,0,1,1,14.16-14.15A14.18,14.18,0,0,1,395.47,296.84Zm0-25.1a10.95,10.95,0,1,0,10.94,10.95A11,11,0,0,0,395.47,271.74Z"/><circle class="cls-7" cx="395.47" cy="282.69" r="10.46"/><rect class="cls-8" x="361.4" y="312.02" width="67.58" height="9.01" rx="4.51"/><circle class="cls-9" cx="449.75" cy="248.05" r="8.4"/><circle class="cls-4" cx="449.75" cy="248.05" r="4.47"/><path class="cls-4" d="M449.75,254.13a6.08,6.08,0,1,1,6.08-6.08A6.09,6.09,0,0,1,449.75,254.13Zm0-8.94a2.86,2.86,0,1,0,2.86,2.86A2.86,2.86,0,0,0,449.75,245.19Z"/><circle class="cls-9" cx="449.75" cy="248.05" r="2.58"/><circle class="cls-9" cx="478.71" cy="248.05" r="8.4"/><circle class="cls-4" cx="478.71" cy="248.05" r="4.47"/><path class="cls-4" d="M478.71,254.13a6.08,6.08,0,1,1,6.08-6.08A6.09,6.09,0,0,1,478.71,254.13Zm0-8.94a2.86,2.86,0,1,0,2.87,2.86A2.86,2.86,0,0,0,478.71,245.19Z"/><circle class="cls-9" cx="478.71" cy="248.05" r="2.58"/><circle class="cls-9" cx="348.49" cy="246.01" r="3.54"/><circle class="cls-6" cx="348.49" cy="246.01" r="2.17"/><path class="cls-2" d="M330.73,259.89H305.62a1,1,0,0,1-1-1l-1.76-21.73a1,1,0,0,1,1-1.12h28.63a1,1,0,0,1,1,1.12l-1.76,21.73A1,1,0,0,1,330.73,259.89Z"/><path class="cls-3" d="M328.42,254.1H307.93a1.11,1.11,0,0,1-1.1-1l-1.1-12.59a1.11,1.11,0,0,1,1.11-1.2h22.68a1.1,1.1,0,0,1,1.1,1.2l-1.09,12.59A1.11,1.11,0,0,1,328.42,254.1Z"/><rect class="cls-6" x="314.04" y="244.75" width="0.64" height="7.51" transform="translate(-83.05 197.15) rotate(-30.96)"/><path class="cls-6" d="M316,252.08h0a.27.27,0,0,1-.12-.09L312,245.55a.19.19,0,0,1,0-.15.18.18,0,0,1,.09-.12l.55-.33a.19.19,0,0,1,.27.07l3.86,6.43a.19.19,0,0,1-.06.27l-.56.33A.17.17,0,0,1,316,252.08Zm-3.59-6.56,3.66,6.09.21-.12-3.66-6.1Z"/><path class="cls-4" d="M318.18,250.88A3.22,3.22,0,0,0,315,254.1h6.44A3.22,3.22,0,0,0,318.18,250.88Z"/><circle class="cls-9" cx="318.18" cy="272.63" r="8.4"/><circle class="cls-4" cx="318.18" cy="272.63" r="4.47"/><path class="cls-4" d="M318.18,278.72a6.09,6.09,0,1,1,6.08-6.09A6.09,6.09,0,0,1,318.18,278.72Zm0-9a2.87,2.87,0,1,0,2.86,2.86A2.87,2.87,0,0,0,318.18,269.77Z"/><circle class="cls-9" cx="318.18" cy="272.63" r="3.73"/><polygon class="cls-8" points="318.28 308.77 318.28 303.38 313.61 300.69 308.94 303.38 308.94 308.77 313.61 311.47 318.28 308.77"/><path class="cls-4" d="M313.61,310.14l-3.51-2v-4.06l3.51-2,3.52,2v4.06Zm-2.87-2.4,2.87,1.65,2.87-1.65v-3.32l-2.87-1.66-2.87,1.66Z"/><circle class="cls-4" cx="313.61" cy="306.08" r="2.51"/><circle class="cls-7" cx="339.7" cy="305.85" r="8.31"/><circle class="cls-4" cx="339.7" cy="305.85" r="3.5"/><path class="cls-4" d="M339.7,311a5.11,5.11,0,1,1,5.11-5.11A5.12,5.12,0,0,1,339.7,311Zm0-7a1.89,1.89,0,1,0,1.89,1.89A1.89,1.89,0,0,0,339.7,304Z"/><circle class="cls-7" cx="339.7" cy="305.85" r="2.91"/><circle class="cls-7" cx="444.32" cy="305.87" r="8.94"/><circle class="cls-4" cx="444.32" cy="305.87" r="4.76"/><path class="cls-4" d="M444.32,312.24a6.37,6.37,0,1,1,6.37-6.37A6.38,6.38,0,0,1,444.32,312.24Zm0-9.53a3.16,3.16,0,1,0,3.15,3.16A3.16,3.16,0,0,0,444.32,302.71Z"/><circle class="cls-7" cx="444.32" cy="305.87" r="3.97"/><circle class="cls-7" cx="476.18" cy="305.87" r="8.94"/><circle class="cls-4" cx="476.18" cy="305.87" r="4.76"/><path class="cls-4" d="M476.18,312.24a6.37,6.37,0,1,1,6.37-6.37A6.38,6.38,0,0,1,476.18,312.24Zm0-9.53a3.16,3.16,0,1,0,3.16,3.16A3.16,3.16,0,0,0,476.18,302.71Z"/><circle class="cls-7" cx="476.18" cy="305.87" r="3.97"/><circle class="cls-4" cx="365.91" cy="316.53" r="1.93"/><circle class="cls-4" cx="424.47" cy="316.53" r="1.93"/><circle class="cls-9" cx="464.23" cy="270.06" r="8.4"/><circle class="cls-4" cx="464.23" cy="270.06" r="3.53"/><path class="cls-4" d="M464.23,275.2a5.14,5.14,0,1,1,5.14-5.14A5.14,5.14,0,0,1,464.23,275.2Zm0-7.07a1.93,1.93,0,1,0,1.93,1.93A1.93,1.93,0,0,0,464.23,268.13Z"/><circle class="cls-9" cx="464.23" cy="270.06" r="2.94"/><path class="cls-3" d="M396.59,367.06a15.1,15.1,0,0,1-.76,1.41c-.32.54-.71,1.12-1.14,1.73a18,18,0,0,1-1.64,2,8.06,8.06,0,0,1-1.83,1.5,3.14,3.14,0,0,1-.65.3,2.51,2.51,0,0,1-.66.1h-.42a.33.33,0,0,1-.23-.07.46.46,0,0,1-.07-.23v-.16a5.27,5.27,0,0,1,.23-1.34c.15-.55.32-1.13.49-1.74,0-.13.09-.26.13-.39s.09-.26.13-.39c.18-.53.35-1,.53-1.51l.39-1.11a8.58,8.58,0,0,0,.46-1.63,9.32,9.32,0,0,0,.13-1.57,7.37,7.37,0,0,0-1.31-4.26,7.29,7.29,0,0,0-3.86-2.74,12.81,12.81,0,0,0-2-.5,13.06,13.06,0,0,0-2-.16,12.14,12.14,0,0,0-5.07,1.11,14,14,0,0,0-4.42,3.21,5.13,5.13,0,0,0-1.57-2.45,7.17,7.17,0,0,0-2.49-1.41,7.92,7.92,0,0,0-1.8-.46,13.13,13.13,0,0,0-1.86-.13h-.78a15.56,15.56,0,0,0-3.77.75,17.09,17.09,0,0,0-3.37,1.54l.53-1.44H345.75l-3.46,10-.07,0-.13.26a.65.65,0,0,0-.06.26l-.14.27-.13.26a9.32,9.32,0,0,1-.62,1.17,11.46,11.46,0,0,1-1,1.44,13.24,13.24,0,0,1-1.31,1.51,8.79,8.79,0,0,1-1.44,1.18l-.75.36a1.78,1.78,0,0,1-.75.16.66.66,0,0,1-.36,0,1,1,0,0,1-.3-.1.5.5,0,0,1-.36-.32,1.66,1.66,0,0,1-.1-.53v-.26a.68.68,0,0,1,.07-.26,1.77,1.77,0,0,1,.06-.43,1.8,1.8,0,0,1,.14-.35.59.59,0,0,1,.06-.3.35.35,0,0,0,.07-.16q.78-2.43,1.6-4.81t1.67-4.74c.26-.79.53-1.58.82-2.39s.55-1.6.81-2.39H327.31l-.66,2a10.48,10.48,0,0,0-3.53-1.93,13.5,13.5,0,0,0-4.06-.62h-.55a2,2,0,0,0-.56.07,16.1,16.1,0,0,0-5.1,1.08,17.86,17.86,0,0,0-4.39,2.38,15.59,15.59,0,0,0-4.08,4.71,11.77,11.77,0,0,0-1.55,4.8c-.24.4-.49.8-.78,1.22a20.39,20.39,0,0,1-1.73,2.13,6.27,6.27,0,0,1-1.93,1.47,2.11,2.11,0,0,1-.62.26,2.56,2.56,0,0,1-.62.07,1.19,1.19,0,0,1-.76-.2.65.65,0,0,1-.22-.52,2.74,2.74,0,0,1,.16-.88c.11-.33.23-.65.36-.95.78-2.36,1.58-4.7,2.39-7s1.6-4.65,2.38-7,1.58-4.64,2.39-7,1.6-4.66,2.39-7H289.62l-5,14.66h-7.27c.35-1.09.67-2.15.95-3.18a11,11,0,0,0,.43-3,9,9,0,0,0-.49-2.91,10.08,10.08,0,0,0-1.61-2.85,11.13,11.13,0,0,0-4.93-3.59,18.14,18.14,0,0,0-6.45-1.12c-.65,0-1.32,0-2,.07a14.58,14.58,0,0,0-2,.26A27,27,0,0,0,248.57,348q-5.73,4.54-5.46,10.83a7.7,7.7,0,0,0,2.06,5.39,6.25,6.25,0,0,0,4.35,2,3.79,3.79,0,0,0,.49,0,3.74,3.74,0,0,1,.49,0,6.34,6.34,0,0,0,2.59-1.21,8.25,8.25,0,0,0,2.25-2.71,4.93,4.93,0,0,1-3.1-1.93,5.61,5.61,0,0,1-1-3.24,9.72,9.72,0,0,1,.09-1.31,10.71,10.71,0,0,1,.3-1.31,13.43,13.43,0,0,1,3.34-5.49,7.15,7.15,0,0,1,5.16-2.49,2.46,2.46,0,0,1,2.16.85,3.56,3.56,0,0,1,.59,2.1c0,.22,0,.43,0,.65a4.24,4.24,0,0,1-.1.59,6.81,6.81,0,0,1-.23,1.24q-.17.6-.36,1.11a.75.75,0,0,1,0,.23,1.46,1.46,0,0,1-.1.23c-.78,2.23-1.56,4.45-2.32,6.68s-1.52,4.42-2.26,6.6-1.49,4.44-2.26,6.64-1.53,4.42-2.32,6.64h17l5.95-17.07h7.27c-.13.35-.27.71-.4,1.08l-.39,1.08c-.44,1.22-.84,2.45-1.21,3.69a13.18,13.18,0,0,0-.55,3.77c0,3.09,1,5.3,3,6.6a12.45,12.45,0,0,0,6.9,2h.69a5,5,0,0,0,.75-.07,19.91,19.91,0,0,0,4.87-1,13.5,13.5,0,0,0,4.09-2.19,17.47,17.47,0,0,0,2.91-2.92,10.41,10.41,0,0,0,1.28,1.93,9.09,9.09,0,0,0,3.76,2.88,12.88,12.88,0,0,0,4.42.92h.62a2,2,0,0,0,.55-.07,14,14,0,0,0,4.62-1.21,14.77,14.77,0,0,0,4-2.65,5.65,5.65,0,0,0,2.78,2.91,9.77,9.77,0,0,0,4,1h.32a14,14,0,0,0,8.23-2.25l-.57,1.66h12.23l.53-1.57c.26-.78.52-1.61.78-2.48s.81-2.34,1.37-4a42.88,42.88,0,0,1,2.46-5.53,18.14,18.14,0,0,1,2.12-3.17,5,5,0,0,1,.69-.69,3.86,3.86,0,0,1,.75-.49,3,3,0,0,1,.69-.3,2.84,2.84,0,0,1,.69-.09,1.13,1.13,0,0,1,.81.26,1.16,1.16,0,0,1,.3.91,2.94,2.94,0,0,1-.07.62,5.63,5.63,0,0,1-.19.76c-.44,1.31-.89,2.61-1.34,3.92s-.91,2.62-1.35,3.93-.94,2.68-1.4,4-.93,2.62-1.41,3.92h13l1-3c.35-1,.72-2.06,1.11-3.11s.7-2,1.05-3,.7-2,1-3c.13-.35.3-.75.52-1.21s.46-.93.72-1.41a13.93,13.93,0,0,1,1.83-2.32,3.09,3.09,0,0,1,2.23-1.08.83.83,0,0,1,.75.36,1.65,1.65,0,0,1,.23.88,4.25,4.25,0,0,1-.1.89c-.07.32-.14.66-.23,1a3.32,3.32,0,0,1-.2.66,4.84,4.84,0,0,0-.19.58c-.18.44-.33.83-.46,1.18s-.22.59-.26.72c-.26.66-.51,1.34-.75,2.06a15.29,15.29,0,0,0-.56,2.19c0,.31-.08.6-.1.89s0,.58,0,.88a7.72,7.72,0,0,0,.26,2,5.76,5.76,0,0,0,.92,1.86,5.19,5.19,0,0,0,2.32,1.8,12.21,12.21,0,0,0,2.91.75c.35,0,.69.08,1,.1l1,0q6.15,0,9.55-3.5a32.31,32.31,0,0,0,5.83-8.47Zm-72.1-2.42a33.52,33.52,0,0,1-1.17,3.53c-.22.48-.46,1-.72,1.64a16.59,16.59,0,0,1-1,1.9,16.8,16.8,0,0,1-2.51,3.46,4.52,4.52,0,0,1-3.37,1.57,1.21,1.21,0,0,1-1.18-.65,3.63,3.63,0,0,1-.33-1.64c0-.26,0-.54,0-.85a3.77,3.77,0,0,1,.17-.85,7.86,7.86,0,0,1,.19-1c.09-.33.18-.65.27-.95a7.87,7.87,0,0,1,.29-1.05c.11-.3.19-.52.23-.65a12.77,12.77,0,0,1,.82-1.74c.37-.67.79-1.36,1.27-2.06a20.09,20.09,0,0,1,2.23-2.81,7.5,7.5,0,0,1,2.48-1.83,4.15,4.15,0,0,1,.66-.2,3.49,3.49,0,0,1,.65-.06c.61,0,1,.15,1.15.46a2.83,2.83,0,0,1,.23,1.24A10.5,10.5,0,0,1,324.49,364.64Z"/><path class="cls-6" d="M458.17,374.65a4.45,4.45,0,0,1-1,.16c-.35,0-.69,0-1,0a10.48,10.48,0,0,1-2.72-.36,6.48,6.48,0,0,1-2.45-1.28,22.2,22.2,0,0,0,4.35-5,15.86,15.86,0,0,0,2.39-6.09c.43-.08.88-.18,1.34-.29s.9-.23,1.34-.36a24.62,24.62,0,0,0,7.33-3.89,14.62,14.62,0,0,0,4.9-6.38,10.15,10.15,0,0,0,.49-1.7,9,9,0,0,0,.17-1.7,8.62,8.62,0,0,0-.36-2.46,6.58,6.58,0,0,0-1.21-2.25,8.61,8.61,0,0,0-4-3,14.45,14.45,0,0,0-5.07-.88l-.82,0c-.28,0-.58,0-.88,0a21.75,21.75,0,0,0-5.79,1.31,19.52,19.52,0,0,0-4.74,2.49,18.4,18.4,0,0,0-5.5,6.54c-1.22,2.48-2.33,5.08-3.34,7.78-.08.27-.17.52-.26.76s-.17.49-.26.75a6.67,6.67,0,0,1-5.07-1.67,5.67,5.67,0,0,1-1.8-4c0-.22,0-.44,0-.68s.06-.5.1-.76a8,8,0,0,1,.88-2.16,8.63,8.63,0,0,1,1.67-2l.89-.78a2.1,2.1,0,0,0,.36-.4s0-.06-.07-.06a.91.91,0,0,0-.42-.3c-.24-.1-.6-.25-1.08-.42a11.76,11.76,0,0,0-1.93-.59,9.37,9.37,0,0,0-1.87-.2,8.35,8.35,0,0,0-5.85,2.26,7.23,7.23,0,0,0-2.46,5.53,8.18,8.18,0,0,0,.33,2.22,9.4,9.4,0,0,0,1.05,2.36,11,11,0,0,0,4.48,4.22,20.28,20.28,0,0,0,5.92,2c.52.09,1,.17,1.54.23a10.58,10.58,0,0,0,1.47.1l-2,5.69c-.22-.09-.46-.17-.72-.26l-.78-.26c-1-.31-2.12-.59-3.34-.85a34.67,34.67,0,0,0-3.8-.59c-.39,0-.77-.08-1.14-.1s-.75,0-1.15,0a13.6,13.6,0,0,0-5,.88,5.23,5.23,0,0,0-3.11,3.31c0,.21-.08.43-.13.65a3.66,3.66,0,0,0-.06.65,4.37,4.37,0,0,0,.39,1.84,6.16,6.16,0,0,0,1.05,1.57,10.53,10.53,0,0,0,4.44,2.48,23.58,23.58,0,0,0,5.63.92h1.18a33,33,0,0,0,4.12-.26,23,23,0,0,0,3.53-.72l.66-.27c.21-.08.41-.17.59-.26q.59-.19,1.11-.42a4.08,4.08,0,0,1,1-.3,9.21,9.21,0,0,0,4.32,3.63,15.36,15.36,0,0,0,5.82,1.28h.4a15,15,0,0,0,7.52-1.83,8.32,8.32,0,0,0,4.32-5.69c.09-.31.16-.58.23-.82s.12-.49.16-.75a2.92,2.92,0,0,0,.1-.4,1.86,1.86,0,0,1,.1-.39,31,31,0,0,1-3.11,1.21A19.93,19.93,0,0,1,458.17,374.65Zm1.73-19.17a31.17,31.17,0,0,1,1.08-3.27,23.75,23.75,0,0,1,2.62-4.94,4.56,4.56,0,0,1,3.79-2.26,1.46,1.46,0,0,1,1.31.59,2.43,2.43,0,0,1,.39,1.38v.39a1.32,1.32,0,0,1-.06.39,9.7,9.7,0,0,1-.2,1.05c-.09.35-.18.67-.26,1a1.45,1.45,0,0,0-.2.39,2.85,2.85,0,0,1-.13.33c-.09.17-.17.35-.26.52a3.83,3.83,0,0,1-.33.53,14.22,14.22,0,0,1-3.24,3.66,17.17,17.17,0,0,1-5.2,2.88C459.39,357.4,459.61,356.53,459.9,355.48Zm-28.69,19.43a11,11,0,0,1-3.66.92.73.73,0,0,1-.3.06h-.36a8.92,8.92,0,0,1-1.34-.1,5.32,5.32,0,0,1-1.34-.36l-.39-.13a1.75,1.75,0,0,1-.39-.19,4.65,4.65,0,0,1-1-.69,1.28,1.28,0,0,1-.45-.95v-.23a.23.23,0,0,1,.06-.16,2.79,2.79,0,0,1,1.54-1.57,7.46,7.46,0,0,1,2.45-.65,2,2,0,0,1,.56-.07h.56a10.3,10.3,0,0,1,1.3.07,5.65,5.65,0,0,1,1.05.19,24.31,24.31,0,0,1,2.55.79,10.09,10.09,0,0,1,2.29,1.17A13.4,13.4,0,0,1,431.21,374.91Z"/><path class="cls-6" d="M475.44,353.06a6.84,6.84,0,0,0,2.55,1.21,11.84,11.84,0,0,0,2.88.36,8.25,8.25,0,0,0,1.08-.07l1.07-.13.4-.09.46-.1A7.55,7.55,0,0,0,486.1,353a4.14,4.14,0,0,0,1.44-2.06c0-.18.07-.34.1-.49a3.46,3.46,0,0,0,0-.43,3.31,3.31,0,0,0-1.15-2.55,9.06,9.06,0,0,0-2.51-1.64l-.33-.13-.39-.13a8.65,8.65,0,0,0-1.38-.29,10,10,0,0,0-1.44-.1h-.72a10.7,10.7,0,0,0-3,.72,5.54,5.54,0,0,0-2.39,1.77,4,4,0,0,0-.52,1,3,3,0,0,0-.2,1,3.75,3.75,0,0,0,.49,1.8A5.06,5.06,0,0,0,475.44,353.06Z"/><path class="cls-6" d="M545.63,367.06A19.05,19.05,0,0,1,540.4,374a12.55,12.55,0,0,1-8.24,2.74,5.74,5.74,0,0,1-3.9-1.27,5.64,5.64,0,0,1-1.8-3.63,22.72,22.72,0,0,0,3.27-.13,29.21,29.21,0,0,0,3.93-.72A21.78,21.78,0,0,0,540.4,368a6,6,0,0,0,2.94-5.56,4.42,4.42,0,0,0-1.73-3.53,10.11,10.11,0,0,0-3.57-1.83,2,2,0,0,0-.36-.1,3.34,3.34,0,0,1-.36-.1,13.32,13.32,0,0,0-2.42-.46,26,26,0,0,0-2.68-.13c-.61,0-1.23,0-1.86.07s-1.28.11-1.93.19a24.14,24.14,0,0,0-8.51,2.78,10.76,10.76,0,0,0-5.3,6.12,13,13,0,0,0-.49,1.93,10.79,10.79,0,0,0-.16,1.86v0a9.47,9.47,0,0,1-.69.73,3.18,3.18,0,0,1-2.19.95,2.29,2.29,0,0,1-.43,0l-.49-.09-.49-.27a1.8,1.8,0,0,1-.42-.32,1.91,1.91,0,0,1,.16-.27,1.07,1.07,0,0,0,.17-.32,36,36,0,0,0,2.38-4.55,12.31,12.31,0,0,0,1.08-5v-.49a2.27,2.27,0,0,0-.06-.5,5.45,5.45,0,0,0-.62-1.86,2.3,2.3,0,0,0-1.54-1.14.26.26,0,0,0-.2-.07h-.26a2.37,2.37,0,0,0-1.57.62,8.79,8.79,0,0,0-1.31,1.41.62.62,0,0,0-.1.16.35.35,0,0,1-.09.16,12.18,12.18,0,0,0-1.38,3,18.09,18.09,0,0,0-.72,3.37c0,.26,0,.55,0,.85s0,.59,0,.85,0,.7,0,1,.05.7.1,1.05c-.18.26-.36.55-.56.88a9.1,9.1,0,0,1-.69,1,12.76,12.76,0,0,1-2.19,2.29,4.12,4.12,0,0,1-2.65,1.05,1,1,0,0,1-.95-.46,1.92,1.92,0,0,1-.29-1,1.61,1.61,0,0,1,.07-.49l.13-.49q1.31-3.66,2.55-7.36t2.48-7.29H490.74c-.69,2.14-1.43,4.26-2.19,6.38q-1,2.68-1.91,5.44c-.23.44-.46.88-.7,1.3a12.42,12.42,0,0,1-1.93,2.5,8.46,8.46,0,0,1-1.64,1.21,2.84,2.84,0,0,1-1.31.43,1.31,1.31,0,0,1-1-.2.83.83,0,0,1-.3-.66,3.82,3.82,0,0,1,.13-.88,7.09,7.09,0,0,1,.33-.95c.52-1.62,1.06-3.23,1.6-4.83s1.1-3.18,1.67-4.75c.26-.79.54-1.59.82-2.4s.56-1.61.82-2.4H472.3q-1.05,3-2.07,6t-2.06,6c-.08.26-.16.51-.23.76s-.14.49-.22.75a14.91,14.91,0,0,0-.3,1.54,12.69,12.69,0,0,0-.1,1.48,7.78,7.78,0,0,0,1.05,4A6.15,6.15,0,0,0,471.9,380a9.41,9.41,0,0,0,1.9.46,14.34,14.34,0,0,0,2,.13h.59a16.28,16.28,0,0,0,4.55-.91,12,12,0,0,0,3.83-2.23,16.87,16.87,0,0,0,1.51-1.54,7.86,7.86,0,0,0,1.33,2.26,6.79,6.79,0,0,0,5.53,2.23,13.81,13.81,0,0,0,7.69-2.23A30.07,30.07,0,0,0,506.9,373a4.88,4.88,0,0,0,1.8,1.34,5.34,5.34,0,0,0,2.06.42,4.71,4.71,0,0,0,.53,0,4.53,4.53,0,0,1,.52,0,8,8,0,0,0,2.13-.69,9.06,9.06,0,0,0,1-.54,9.47,9.47,0,0,0,1.52,2.21,14.84,14.84,0,0,0,6.25,4,24.35,24.35,0,0,0,2.94.75,19.63,19.63,0,0,0,3.08.36,3.26,3.26,0,0,0,.72.07h.78a25.54,25.54,0,0,0,4.88-.46,19.54,19.54,0,0,0,4.54-1.44,14.74,14.74,0,0,0,5.63-4.38,38.26,38.26,0,0,0,3.66-5.95Zm-18.38-.39a10.31,10.31,0,0,1,.52-1.57,13.59,13.59,0,0,1,2.68-4.19,5.36,5.36,0,0,1,4.19-1.83,3,3,0,0,1,1.7.52,1.89,1.89,0,0,1,.59,1.57,5,5,0,0,1-2.13,4.19,13.58,13.58,0,0,1-4.54,2.16,13.4,13.4,0,0,1-1.7.39c-.57.09-1.11.15-1.64.2Q527.06,367.45,527.25,366.67Z"/><circle class="cls-6" cx="407.29" cy="377.86" r="7.2"/><path class="cls-3" d="M272.7,401.52V388.8h2.09v12.72Z"/><path class="cls-3" d="M277.27,401.52V392.8h2v8.72Zm6,0v-5a1.9,1.9,0,0,0-2-2,2,2,0,0,0-1,.25,1.8,1.8,0,0,0-.71.71,2.08,2.08,0,0,0-.26,1l-.78-.44a3.52,3.52,0,0,1,.44-1.77,3.15,3.15,0,0,1,1.21-1.22,3.35,3.35,0,0,1,1.73-.44,3.07,3.07,0,0,1,1.75.5,3.62,3.62,0,0,1,1.2,1.29,3.32,3.32,0,0,1,.43,1.64v5.47Z"/><path class="cls-3" d="M286.42,394.61V392.8h6.17v1.81Zm2.08,6.91V389.16h2v12.36Z"/><path class="cls-3" d="M297.84,401.7a4.74,4.74,0,0,1-2.35-.59,4.31,4.31,0,0,1-1.65-1.63,4.44,4.44,0,0,1-.61-2.32,4.46,4.46,0,0,1,2.22-3.94,4.47,4.47,0,0,1,2.29-.6,4,4,0,0,1,3.62,2.1,4.58,4.58,0,0,1,.54,2.24,3.37,3.37,0,0,1,0,.44c0,.16-.05.32-.08.5h-7.16v-1.63h6.12l-.74.65a3.44,3.44,0,0,0-.31-1.34,2,2,0,0,0-.77-.84,2.49,2.49,0,0,0-1.23-.29,2.6,2.6,0,0,0-1.33.33,2.27,2.27,0,0,0-.87.92,2.92,2.92,0,0,0-.31,1.4,3,3,0,0,0,.33,1.44,2.3,2.3,0,0,0,.93.95,2.72,2.72,0,0,0,1.38.34,3.19,3.19,0,0,0,1.24-.24,2.4,2.4,0,0,0,1-.69l1.27,1.29a3.93,3.93,0,0,1-1.54,1.13A5,5,0,0,1,297.84,401.7Z"/><path class="cls-3" d="M303.49,401.52V392.8h2v8.72Zm2-4.85-.69-.35a4.52,4.52,0,0,1,.74-2.68,2.56,2.56,0,0,1,2.23-1,2.61,2.61,0,0,1,2.16,1L308.62,395a1.32,1.32,0,0,0-.53-.36,1.75,1.75,0,0,0-.67-.11A1.89,1.89,0,0,0,306,395,2.26,2.26,0,0,0,305.49,396.67Z"/><path class="cls-3" d="M314.29,401.7a4,4,0,0,1-2.14-.6,4.34,4.34,0,0,1-1.5-1.62,5,5,0,0,1,0-4.62,4.47,4.47,0,0,1,1.5-1.64,4,4,0,0,1,2.14-.6,3.65,3.65,0,0,1,1.77.42,3.45,3.45,0,0,1,1.23,1.17,3.24,3.24,0,0,1,.45,1.69v2.51a3.27,3.27,0,0,1-.44,1.69,3.15,3.15,0,0,1-1.23,1.17A3.61,3.61,0,0,1,314.29,401.7Zm.33-1.89a2.35,2.35,0,0,0,1.79-.74,2.76,2.76,0,0,0,.68-1.91,3,3,0,0,0-.31-1.38,2.39,2.39,0,0,0-.87-.94,2.45,2.45,0,0,0-1.29-.33,2.31,2.31,0,0,0-2.16,1.27,3.14,3.14,0,0,0,0,2.76,2.31,2.31,0,0,0,2.16,1.27Zm2.34,1.71v-2.34l.35-2.13-.35-2.11V392.8h2v8.72Z"/><path class="cls-3" d="M325.19,401.7a4.63,4.63,0,0,1-2.34-.6,4.42,4.42,0,0,1-1.64-1.63,4.77,4.77,0,0,1,0-4.63,4.47,4.47,0,0,1,1.64-1.62,4.85,4.85,0,0,1,4.24-.21,4.14,4.14,0,0,1,1.5,1.11l-1.31,1.33a2.46,2.46,0,0,0-.92-.68,3,3,0,0,0-1.17-.23,2.5,2.5,0,0,0-1.32.34,2.32,2.32,0,0,0-.89.92,3,3,0,0,0,0,2.71,2.34,2.34,0,0,0,.89.93,2.59,2.59,0,0,0,1.32.34,3,3,0,0,0,1.17-.23,2.46,2.46,0,0,0,.92-.68l1.31,1.32a4.06,4.06,0,0,1-1.5,1.12A4.65,4.65,0,0,1,325.19,401.7Z"/><path class="cls-3" d="M329.12,394.61V392.8h6.17v1.81Zm2.08,6.91V389.16h2v12.36Z"/><path class="cls-3" d="M337.76,391.2a1.13,1.13,0,0,1-.84-.35,1.23,1.23,0,0,1,0-1.7,1.21,1.21,0,0,1,1.7,0,1.29,1.29,0,0,1,0,1.7A1.13,1.13,0,0,1,337.76,391.2Zm-1,10.32V392.8h2v8.72Z"/><path class="cls-3" d="M343.94,401.52l-4-8.72h2.22l3,7.1H343.9l3.06-7.1h2.12l-4,8.72Z"/><path class="cls-3" d="M354,401.7a4.75,4.75,0,0,1-2.36-.59,4.47,4.47,0,0,1-2.26-3.95,4.53,4.53,0,0,1,.6-2.32,4.49,4.49,0,0,1,3.91-2.22,4,4,0,0,1,2.15.56,4,4,0,0,1,1.47,1.54,4.58,4.58,0,0,1,.54,2.24,3.37,3.37,0,0,1,0,.44c0,.16,0,.32-.08.5h-7.16v-1.63h6.12l-.74.65a3.44,3.44,0,0,0-.31-1.34,2,2,0,0,0-.77-.84,2.49,2.49,0,0,0-1.23-.29,2.6,2.6,0,0,0-1.33.33,2.27,2.27,0,0,0-.87.92,3,3,0,0,0-.31,1.4,3,3,0,0,0,.33,1.44,2.3,2.3,0,0,0,.93.95,2.72,2.72,0,0,0,1.38.34,3.15,3.15,0,0,0,1.24-.24,2.5,2.5,0,0,0,1-.69l1.27,1.29a4,4,0,0,1-1.55,1.13A5,5,0,0,1,354,401.7Z"/><path class="cls-3" d="M363.58,401.52V388.8H365l.63,2.4v10.32Zm8.82,0-7.62-9.94.26-2.78,7.61,9.94Zm0,0-.64-2.24V388.8h2.09v12.72Z"/><path class="cls-3" d="M380.39,401.7a4.71,4.71,0,0,1-2.35-.59,4.31,4.31,0,0,1-1.65-1.63,4.44,4.44,0,0,1-.61-2.32,4.46,4.46,0,0,1,2.22-3.94,4.46,4.46,0,0,1,2.28-.6,4.09,4.09,0,0,1,2.16.56,4,4,0,0,1,1.47,1.54,4.69,4.69,0,0,1,.53,2.24c0,.14,0,.29,0,.44s-.05.32-.09.5h-7.15v-1.63h6.12l-.75.65a3.12,3.12,0,0,0-.31-1.34,1.9,1.9,0,0,0-.77-.84,2.42,2.42,0,0,0-1.22-.29,2.57,2.57,0,0,0-1.33.33,2.15,2.15,0,0,0-.87.92,2.92,2.92,0,0,0-.31,1.4,3,3,0,0,0,.33,1.44,2.22,2.22,0,0,0,.92.95,2.72,2.72,0,0,0,1.38.34,3.2,3.2,0,0,0,1.25-.24,2.47,2.47,0,0,0,1-.69l1.27,1.29a4,4,0,0,1-1.54,1.13A5,5,0,0,1,380.39,401.7Z"/><path class="cls-3" d="M385.06,394.61V392.8h6.18v1.81Zm2.09,6.91V389.16h2v12.36Z"/><path class="cls-3" d="M395.36,401.7a4.91,4.91,0,0,1-1.39-.19,4.64,4.64,0,0,1-1.24-.55,3.84,3.84,0,0,1-1-.86l1.27-1.27a2.91,2.91,0,0,0,1,.79,3.21,3.21,0,0,0,1.34.26,2,2,0,0,0,1-.2.62.62,0,0,0,.34-.58.73.73,0,0,0-.32-.62,3.6,3.6,0,0,0-.85-.37l-1.09-.32a4.88,4.88,0,0,1-1.09-.44,2.31,2.31,0,0,1-.84-.77,2.25,2.25,0,0,1-.33-1.28,2.45,2.45,0,0,1,1.5-2.36,4.08,4.08,0,0,1,1.71-.32,4.4,4.4,0,0,1,1.87.37,3.39,3.39,0,0,1,1.35,1.12l-1.27,1.27a2.53,2.53,0,0,0-.87-.71,2.57,2.57,0,0,0-1.13-.24,2,2,0,0,0-.93.18.6.6,0,0,0-.32.53.66.66,0,0,0,.32.57,3.65,3.65,0,0,0,.85.34l1.09.32a5,5,0,0,1,1.09.47,2.47,2.47,0,0,1,.84.8,2.32,2.32,0,0,1,.33,1.3,2.51,2.51,0,0,1-.89,2A3.68,3.68,0,0,1,395.36,401.7Z"/><path class="cls-6" d="M422.4,401.52V388.8h1.45l5.29,8.7h-.94l5.28-8.7h1.46v12.72h-2.09v-9l.47.13-3.92,6.45h-1.46L424,392.6l.47-.13v9Z"/><path class="cls-6" d="M441.08,401.7a3.89,3.89,0,0,1-2.13-.6,4.28,4.28,0,0,1-1.51-1.62,5,5,0,0,1,0-4.62,4.41,4.41,0,0,1,1.51-1.64,3.89,3.89,0,0,1,2.13-.6,3.62,3.62,0,0,1,1.77.42,3.29,3.29,0,0,1,1.23,1.17,3.24,3.24,0,0,1,.45,1.69v2.51a3.27,3.27,0,0,1-.44,1.69,3.15,3.15,0,0,1-1.23,1.17A3.58,3.58,0,0,1,441.08,401.7Zm.33-1.89a2.34,2.34,0,0,0,1.79-.74,2.76,2.76,0,0,0,.68-1.91,2.92,2.92,0,0,0-.31-1.38,2.37,2.37,0,0,0-.86-.94,2.51,2.51,0,0,0-1.3-.33,2.44,2.44,0,0,0-1.28.33,2.49,2.49,0,0,0-.88.94,3.23,3.23,0,0,0,0,2.76,2.49,2.49,0,0,0,.88.94A2.44,2.44,0,0,0,441.41,399.81Zm2.34,1.71v-2.34l.35-2.13-.35-2.11V392.8h2v8.72Z"/><path class="cls-6" d="M451.62,401.7a4,4,0,0,1-2.14-.6,4.34,4.34,0,0,1-1.5-1.62,5,5,0,0,1,0-4.62,4.47,4.47,0,0,1,1.5-1.64,4,4,0,0,1,2.14-.6,3.62,3.62,0,0,1,1.77.42,3.37,3.37,0,0,1,1.23,1.17,3.24,3.24,0,0,1,.45,1.69v2.51a3.27,3.27,0,0,1-.44,1.69,3.15,3.15,0,0,1-1.23,1.17A3.58,3.58,0,0,1,451.62,401.7Zm.33-1.89a2.51,2.51,0,0,0,1.3-.33,2.44,2.44,0,0,0,.86-.94,3.23,3.23,0,0,0,0-2.76,2.44,2.44,0,0,0-.86-.94,2.51,2.51,0,0,0-1.3-.33,2.34,2.34,0,0,0-2.16,1.27,3.14,3.14,0,0,0,0,2.76,2.34,2.34,0,0,0,2.16,1.27Zm4.34,1.71h-2v-2.34l.35-2.13-.35-2.11v-6.5h2Z"/><path class="cls-6" d="M462.56,401.7a4.75,4.75,0,0,1-2.36-.59,4.47,4.47,0,0,1-2.26-3.95,4.53,4.53,0,0,1,.6-2.32,4.49,4.49,0,0,1,3.91-2.22,4,4,0,0,1,2.15.56,4,4,0,0,1,1.47,1.54,4.58,4.58,0,0,1,.54,2.24,3.37,3.37,0,0,1,0,.44c0,.16,0,.32-.08.5h-7.16v-1.63h6.12l-.74.65a3.44,3.44,0,0,0-.31-1.34,2,2,0,0,0-.77-.84,2.46,2.46,0,0,0-1.23-.29,2.6,2.6,0,0,0-1.33.33,2.27,2.27,0,0,0-.87.92,3,3,0,0,0-.31,1.4,3,3,0,0,0,.33,1.44,2.3,2.3,0,0,0,.93.95,2.72,2.72,0,0,0,1.38.34,3.15,3.15,0,0,0,1.24-.24,2.43,2.43,0,0,0,1-.69l1.27,1.29a4,4,0,0,1-1.55,1.13A4.94,4.94,0,0,1,462.56,401.7Z"/><path class="cls-6" d="M472.11,401.52V388.8h2.09v12.72Zm1.44-10.81V388.8h7v1.91Zm0,5.23v-1.83h6.5v1.83Zm0,5.58v-1.91h7.12v1.91Z"/><path class="cls-6" d="M486.07,401.7a4,4,0,0,1-2.14-.6,4.34,4.34,0,0,1-1.5-1.62,5,5,0,0,1,0-4.62,4.47,4.47,0,0,1,1.5-1.64,4,4,0,0,1,2.14-.6,3.62,3.62,0,0,1,1.77.42,3.37,3.37,0,0,1,1.23,1.17,3.24,3.24,0,0,1,.45,1.69v2.51a3.27,3.27,0,0,1-.44,1.69,3.15,3.15,0,0,1-1.23,1.17A3.58,3.58,0,0,1,486.07,401.7Zm.33-1.89a2.35,2.35,0,0,0,1.79-.74,2.76,2.76,0,0,0,.68-1.91,3,3,0,0,0-.31-1.38,2.44,2.44,0,0,0-.86-.94,2.51,2.51,0,0,0-1.3-.33,2.41,2.41,0,0,0-1.28.33,2.49,2.49,0,0,0-.88.94,3.14,3.14,0,0,0,0,2.76,2.49,2.49,0,0,0,.88.94A2.41,2.41,0,0,0,486.4,399.81Zm2.34,1.71v-2.34l.35-2.13-.35-2.11V392.8h2v8.72Z"/><path class="cls-6" d="M495.81,401.7a5,5,0,0,1-1.4-.19,4.78,4.78,0,0,1-1.24-.55,4,4,0,0,1-1-.86l1.27-1.27a3,3,0,0,0,1.05.79,3.16,3.16,0,0,0,1.33.26,2,2,0,0,0,1-.2.63.63,0,0,0,.35-.58.71.71,0,0,0-.33-.62,3.69,3.69,0,0,0-.84-.37l-1.1-.32a4.88,4.88,0,0,1-1.09-.44,2.48,2.48,0,0,1-.84-.77,2.25,2.25,0,0,1-.33-1.28,2.45,2.45,0,0,1,1.5-2.36,4.1,4.1,0,0,1,1.72-.32,4.38,4.38,0,0,1,1.86.37,3.49,3.49,0,0,1,1.36,1.12l-1.28,1.27a2.44,2.44,0,0,0-.87-.71,2.54,2.54,0,0,0-1.13-.24,1.92,1.92,0,0,0-.92.18.59.59,0,0,0-.33.53.65.65,0,0,0,.33.57,3.75,3.75,0,0,0,.84.34l1.09.32a4.79,4.79,0,0,1,1.09.47,2.51,2.51,0,0,1,.85.8,2.32,2.32,0,0,1,.33,1.3,2.49,2.49,0,0,1-.9,2A3.65,3.65,0,0,1,495.81,401.7Z"/><path class="cls-6" d="M503.58,401.61l-3.72-8.81h2.2l2.54,6.47H504l2.69-6.47h2.21l-4.05,8.81ZM501,405.15l2.7-5.57,1.13,2-1.62,3.54Z"/></svg>