<svg xmlns="http://www.w3.org/2000/svg" viewBox="0 0 792 612" width="792" height="612"><rect width="792" height="612" fill="#23262B"/><g transform="translate(273.60,104.61) scale(3.8250)">
      <g fill="none" stroke="#C24A38" stroke-width="2.1" stroke-linecap="round">
        <path d="M43 22 A 10 10 0 0 1 43 34"/><path d="M47 18 A 15 15 0 0 1 47 38"/>
        <path d="M21 22 A 10 10 0 0 0 21 34"/><path d="M17 18 A 15 15 0 0 0 17 38"/></g>
      <g fill="none" stroke="#EFE6D2" stroke-width="2.3" stroke-linecap="round" stroke-linejoin="round">
        <rect x="26" y="11" width="12" height="26" rx="6"/>
        <path d="M28.5 18 H35.5 M28.5 23 H35.5 M28.5 28 H35.5"/>
        <path d="M32 37 V48"/><path d="M24 50 Q32 45.5 40 50"/><path d="M27.5 53 H36.5"/></g></g><g fill="#EFE6D2">
<path transform="translate(55.44,453.03) scale(0.10431,-0.10431)" d="M581 0H332V97H392V254Q392 312 372.5 337.0Q353 362 315 362Q269 362 244.0 333.5Q219 305 218 259V97H278V0H29V97H89V353H24V451H218V382Q263 460 363 460Q427 460 474.0 422.0Q521 384 521 304V97H581Z"/>
<path transform="translate(117.29,453.03) scale(0.10431,-0.10431)" d="M463 142Q458 82 404.0 36.0Q350 -10 253 -10Q152 -10 86.5 47.0Q21 104 21 217Q21 321 80.5 390.5Q140 460 247 460Q341 460 399.5 406.0Q458 352 459 264Q459 231 452 199H156Q167 92 262 92Q314 92 332.5 117.0Q351 142 355 162ZM326 274Q330 308 311.5 338.0Q293 368 247 368Q207 368 185.0 342.0Q163 316 157 274Z"/>
<path transform="translate(167.67,453.03) scale(0.10431,-0.10431)" d="M406 140Q396 62 352.0 26.0Q308 -10 238 -10Q163 -10 116.5 27.5Q70 65 70 135V359H6V451H70V588H199V451H361V359H199V157Q199 98 253 98Q265 98 285.5 108.5Q306 119 312 169Z"/>
<path transform="translate(209.19,453.03) scale(0.10431,-0.10431)" d="M455 168Q448 106 401.5 48.0Q355 -10 246 -10Q148 -10 84.5 47.0Q21 104 21 218Q21 338 90.0 399.0Q159 460 257 460Q294 460 336.5 450.5Q379 441 420 419L440 282L337 271L322 345Q283 358 254 358Q213 358 184.0 326.5Q155 295 155 224Q155 92 258 92Q334 92 347 188Z"/>
<path transform="translate(258.32,453.03) scale(0.10431,-0.10431)" d="M503 225Q503 118 433.0 54.0Q363 -10 255 -10Q151 -10 85.5 50.5Q20 111 20 220Q20 319 80.0 390.0Q140 461 262 461Q384 461 443.5 390.5Q503 320 503 225ZM370 229Q370 298 338.0 330.0Q306 362 260 362Q210 362 181.5 326.5Q153 291 153 227Q153 169 179.5 129.0Q206 89 259 89Q309 89 339.5 126.5Q370 164 370 229Z"/>
<path transform="translate(312.87,453.03) scale(0.10431,-0.10431)" d="M581 0H332V97H392V254Q392 312 372.5 337.0Q353 362 315 362Q269 362 244.0 333.5Q219 305 218 259V97H278V0H29V97H89V353H24V451H218V382Q263 460 363 460Q427 460 474.0 422.0Q521 384 521 304V97H581Z"/>
<path transform="translate(374.72,453.03) scale(0.10431,-0.10431)" d="M406 140Q396 62 352.0 26.0Q308 -10 238 -10Q163 -10 116.5 27.5Q70 65 70 135V359H6V451H70V588H199V451H361V359H199V157Q199 98 253 98Q265 98 285.5 108.5Q306 119 312 169Z"/>
<path transform="translate(416.24,453.03) scale(0.10431,-0.10431)" d="M314 457Q333 457 356.5 451.5Q380 446 403 432L423 274L325 263L308 340Q288 352 273 352Q251 352 234.5 335.0Q218 318 218 285V97H298V0H29V97H89V353H24V451H208V365Q219 404 243.5 430.5Q268 457 314 457Z"/>
<path transform="translate(462.23,453.03) scale(0.10431,-0.10431)" d="M503 225Q503 118 433.0 54.0Q363 -10 255 -10Q151 -10 85.5 50.5Q20 111 20 220Q20 319 80.0 390.0Q140 461 262 461Q384 461 443.5 390.5Q503 320 503 225ZM370 229Q370 298 338.0 330.0Q306 362 260 362Q210 362 181.5 326.5Q153 291 153 227Q153 169 179.5 129.0Q206 89 259 89Q309 89 339.5 126.5Q370 164 370 229Z"/>
<path transform="translate(516.79,453.03) scale(0.10431,-0.10431)" d="M267 0H18V97H78V590H13V688H207V97H267Z"/>
</g><g fill="#C24A38">
<path transform="translate(546.51,453.03) scale(0.10431,-0.10431)" d="M37 0V163H190V0Z"/>
<path transform="translate(570.30,453.03) scale(0.10431,-0.10431)" d="M267 0H18V97H78V590H13V688H207V97H267Z"/>
<path transform="translate(600.02,453.03) scale(0.10431,-0.10431)" d="M87 531V665H216V531ZM281 0H32V97H92V353H27V451H221V97H281Z"/>
<path transform="translate(631.21,453.03) scale(0.10431,-0.10431)" d="M520 354H474L313 0H220L50 354H2V451H232V354H189L277 165H283L350 354H314V451H520Z"/>
<path transform="translate(686.18,453.03) scale(0.10431,-0.10431)" d="M463 142Q458 82 404.0 36.0Q350 -10 253 -10Q152 -10 86.5 47.0Q21 104 21 217Q21 321 80.5 390.5Q140 460 247 460Q341 460 399.5 406.0Q458 352 459 264Q459 231 452 199H156Q167 92 262 92Q314 92 332.5 117.0Q351 142 355 162ZM326 274Q330 308 311.5 338.0Q293 368 247 368Q207 368 185.0 342.0Q163 316 157 274Z"/>
</g><g fill="#C4933F">
<path transform="translate(143.97,507.39) scale(0.02376,-0.02376)" d="M664 0H425V79H502L462 187H200L157 79H242V0H5V79H65L270 571H170V650H366L600 79H664ZM436 255 337 519H331L227 255Z"/>
<path transform="translate(164.87,507.39) scale(0.02376,-0.02376)" d="M850 571H766V79H844V0H605V79H675V444H671L467 39H422L211 450H207V79H280V0H43V79H121V571H37V650H199L446 172H450L687 650H850Z"/>
<path transform="translate(191.18,507.39) scale(0.02376,-0.02376)" d="M664 0H425V79H502L462 187H200L157 79H242V0H5V79H65L270 571H170V650H366L600 79H664ZM436 255 337 519H331L227 255Z"/>
<path transform="translate(212.09,507.39) scale(0.02376,-0.02376)" d="M608 446 528 439 508 571H360V79H472V0H160V79H269V571H120L100 439L21 446L40 650H588Z"/>
<path transform="translate(232.26,507.39) scale(0.02376,-0.02376)" d="M530 0H41V79H120V571H41V650H522L542 464L463 457L443 571H211V368H507V290H211V79H452L472 193L550 186Z"/>
<path transform="translate(251.50,507.39) scale(0.02376,-0.02376)" d="M684 571H622V267Q622 198 598.0 134.5Q574 71 516.0 30.5Q458 -10 357 -10Q211 -10 154.5 70.5Q98 151 98 256V571H34V650H275V571H189V259Q189 172 230.5 121.5Q272 71 361 71Q536 71 536 267V571H449V650H684Z"/>
<path transform="translate(273.79,507.39) scale(0.02376,-0.02376)" d="M613 0H472L335 265H211V79H293V0H41V79H120V571H41V650H326Q447 650 503.0 598.5Q559 547 559 462Q559 398 523.5 350.0Q488 302 424 283L532 79H613ZM462 460Q462 519 427.5 545.0Q393 571 312 571H211V339H313Q395 339 428.5 371.0Q462 403 462 460Z"/>
<path transform="translate(304.18,507.39) scale(0.02376,-0.02376)" d="M613 0H472L335 265H211V79H293V0H41V79H120V571H41V650H326Q447 650 503.0 598.5Q559 547 559 462Q559 398 523.5 350.0Q488 302 424 283L532 79H613ZM462 460Q462 519 427.5 545.0Q393 571 312 571H211V339H313Q395 339 428.5 371.0Q462 403 462 460Z"/>
<path transform="translate(324.21,507.39) scale(0.02376,-0.02376)" d="M664 0H425V79H502L462 187H200L157 79H242V0H5V79H65L270 571H170V650H366L600 79H664ZM436 255 337 519H331L227 255Z"/>
<path transform="translate(345.12,507.39) scale(0.02376,-0.02376)" d="M667 326Q667 181 580.0 90.5Q493 0 339 0H41V78H120V572H41V650H334Q495 650 581.0 559.0Q667 468 667 326ZM570 325Q570 440 509.0 506.0Q448 572 332 572H211V78H332Q448 78 509.0 142.5Q570 207 570 325Z"/>
<path transform="translate(367.05,507.39) scale(0.02376,-0.02376)" d="M289 0H41V79H120V571H41V650H289V571H211V79H289Z"/>
<path transform="translate(380.14,507.39) scale(0.02376,-0.02376)" d="M689 325Q689 187 599.5 88.5Q510 -10 360 -10Q209 -10 122.0 89.0Q35 188 35 325Q35 465 125.0 562.5Q215 660 362 660Q511 660 600.0 562.0Q689 464 689 325ZM591 323Q591 436 529.5 507.5Q468 579 362 579Q252 579 192.5 505.5Q133 432 133 326Q133 222 191.5 146.5Q250 71 364 71Q474 71 532.5 143.0Q591 215 591 323Z"/>
<path transform="translate(412.93,507.39) scale(0.02376,-0.02376)" d="M53 254V374H166V254Z"/>
<path transform="translate(433.79,507.39) scale(0.02376,-0.02376)" d="M712 571H634V0H579L210 483H206V79H305V0H46V79H120V571H36V650H186L544 182H548V571H451V650H712Z"/>
<path transform="translate(456.69,507.39) scale(0.02376,-0.02376)" d="M530 0H41V79H120V571H41V650H522L542 464L463 457L443 571H211V368H507V290H211V79H452L472 193L550 186Z"/>
<path transform="translate(475.94,507.39) scale(0.02376,-0.02376)" d="M608 446 528 439 508 571H360V79H472V0H160V79H269V571H120L100 439L21 446L40 650H588Z"/>
<path transform="translate(506.47,507.39) scale(0.02376,-0.02376)" d="M581 56Q544 24 484.5 7.0Q425 -10 356 -10Q215 -10 125.0 83.0Q35 176 35 319Q35 404 71.0 482.5Q107 561 177.5 610.5Q248 660 351 660Q433 660 489.5 638.0Q546 616 583 583L600 451L524 443L506 536Q477 556 440.0 567.5Q403 579 354 579Q254 579 193.0 509.0Q132 439 132 324Q132 205 195.5 138.0Q259 71 366 71Q449 71 503 100L520 196L596 188Z"/>
<path transform="translate(527.05,507.39) scale(0.02376,-0.02376)" d="M689 325Q689 187 599.5 88.5Q510 -10 360 -10Q209 -10 122.0 89.0Q35 188 35 325Q35 465 125.0 562.5Q215 660 362 660Q511 660 600.0 562.0Q689 464 689 325ZM591 323Q591 436 529.5 507.5Q468 579 362 579Q252 579 192.5 505.5Q133 432 133 326Q133 222 191.5 146.5Q250 71 364 71Q474 71 532.5 143.0Q591 215 591 323Z"/>
<path transform="translate(549.48,507.39) scale(0.02376,-0.02376)" d="M712 571H634V0H579L210 483H206V79H305V0H46V79H120V571H36V650H186L544 182H548V571H451V650H712Z"/>
<path transform="translate(572.38,507.39) scale(0.02376,-0.02376)" d="M608 446 528 439 508 571H360V79H472V0H160V79H269V571H120L100 439L21 446L40 650H588Z"/>
<path transform="translate(592.55,507.39) scale(0.02376,-0.02376)" d="M613 0H472L335 265H211V79H293V0H41V79H120V571H41V650H326Q447 650 503.0 598.5Q559 547 559 462Q559 398 523.5 350.0Q488 302 424 283L532 79H613ZM462 460Q462 519 427.5 545.0Q393 571 312 571H211V339H313Q395 339 428.5 371.0Q462 403 462 460Z"/>
<path transform="translate(612.58,507.39) scale(0.02376,-0.02376)" d="M689 325Q689 187 599.5 88.5Q510 -10 360 -10Q209 -10 122.0 89.0Q35 188 35 325Q35 465 125.0 562.5Q215 660 362 660Q511 660 600.0 562.0Q689 464 689 325ZM591 323Q591 436 529.5 507.5Q468 579 362 579Q252 579 192.5 505.5Q133 432 133 326Q133 222 191.5 146.5Q250 71 364 71Q474 71 532.5 143.0Q591 215 591 323Z"/>
<path transform="translate(635.01,507.39) scale(0.02376,-0.02376)" d="M516 0H41V79H120V571H41V650H314V571H211V79H437L457 221L536 214Z"/>
</g></svg>