<?xml version="1.0" encoding="UTF-8"?>
<svg xmlns="http://www.w3.org/2000/svg" viewBox="0 0 305.84216 122.0" width="305.84216" height="122.0" role="img" aria-label="netcontrol.live">
<g transform="translate(119.92,2.00) scale(1.0312)">
  <g fill="none" stroke="#C24A38" stroke-width="2.1" stroke-linecap="round">
    <path d="M43 22 A 10 10 0 0 1 43 34"/><path d="M47 18 A 15 15 0 0 1 47 38"/>
    <path d="M21 22 A 10 10 0 0 0 21 34"/><path d="M17 18 A 15 15 0 0 0 17 38"/>
  </g>
  <g fill="none" stroke="#EFE6D2" stroke-width="2.3" stroke-linecap="round" stroke-linejoin="round">
    <rect x="26" y="11" width="12" height="26" rx="6"/>
    <path d="M28.5 18 H35.5 M28.5 23 H35.5 M28.5 28 H35.5"/>
    <path d="M32 37 V48"/><path d="M24 50 Q32 45.5 40 50"/><path d="M27.5 53 H36.5"/>
  </g>
</g>
<g fill="#EFE6D2">
<path transform="translate(2.73,112.00) scale(0.04600,-0.04600)" d="M581 0H332V97H392V254Q392 312 372.5 337.0Q353 362 315 362Q269 362 244.0 333.5Q219 305 218 259V97H278V0H29V97H89V353H24V451H218V382Q263 460 363 460Q427 460 474.0 422.0Q521 384 521 304V97H581Z"/>
<path transform="translate(30.01,112.00) scale(0.04600,-0.04600)" d="M463 142Q458 82 404.0 36.0Q350 -10 253 -10Q152 -10 86.5 47.0Q21 104 21 217Q21 321 80.5 390.5Q140 460 247 460Q341 460 399.5 406.0Q458 352 459 264Q459 231 452 199H156Q167 92 262 92Q314 92 332.5 117.0Q351 142 355 162ZM326 274Q330 308 311.5 338.0Q293 368 247 368Q207 368 185.0 342.0Q163 316 157 274Z"/>
<path transform="translate(52.23,112.00) scale(0.04600,-0.04600)" d="M406 140Q396 62 352.0 26.0Q308 -10 238 -10Q163 -10 116.5 27.5Q70 65 70 135V359H6V451H70V588H199V451H361V359H199V157Q199 98 253 98Q265 98 285.5 108.5Q306 119 312 169Z"/>
<path transform="translate(70.54,112.00) scale(0.04600,-0.04600)" d="M455 168Q448 106 401.5 48.0Q355 -10 246 -10Q148 -10 84.5 47.0Q21 104 21 218Q21 338 90.0 399.0Q159 460 257 460Q294 460 336.5 450.5Q379 441 420 419L440 282L337 271L322 345Q283 358 254 358Q213 358 184.0 326.5Q155 295 155 224Q155 92 258 92Q334 92 347 188Z"/>
<path transform="translate(92.20,112.00) scale(0.04600,-0.04600)" d="M503 225Q503 118 433.0 54.0Q363 -10 255 -10Q151 -10 85.5 50.5Q20 111 20 220Q20 319 80.0 390.0Q140 461 262 461Q384 461 443.5 390.5Q503 320 503 225ZM370 229Q370 298 338.0 330.0Q306 362 260 362Q210 362 181.5 326.5Q153 291 153 227Q153 169 179.5 129.0Q206 89 259 89Q309 89 339.5 126.5Q370 164 370 229Z"/>
<path transform="translate(116.26,112.00) scale(0.04600,-0.04600)" d="M581 0H332V97H392V254Q392 312 372.5 337.0Q353 362 315 362Q269 362 244.0 333.5Q219 305 218 259V97H278V0H29V97H89V353H24V451H218V382Q263 460 363 460Q427 460 474.0 422.0Q521 384 521 304V97H581Z"/>
<path transform="translate(143.54,112.00) scale(0.04600,-0.04600)" d="M406 140Q396 62 352.0 26.0Q308 -10 238 -10Q163 -10 116.5 27.5Q70 65 70 135V359H6V451H70V588H199V451H361V359H199V157Q199 98 253 98Q265 98 285.5 108.5Q306 119 312 169Z"/>
<path transform="translate(161.85,112.00) scale(0.04600,-0.04600)" d="M314 457Q333 457 356.5 451.5Q380 446 403 432L423 274L325 263L308 340Q288 352 273 352Q251 352 234.5 335.0Q218 318 218 285V97H298V0H29V97H89V353H24V451H208V365Q219 404 243.5 430.5Q268 457 314 457Z"/>
<path transform="translate(182.13,112.00) scale(0.04600,-0.04600)" d="M503 225Q503 118 433.0 54.0Q363 -10 255 -10Q151 -10 85.5 50.5Q20 111 20 220Q20 319 80.0 390.0Q140 461 262 461Q384 461 443.5 390.5Q503 320 503 225ZM370 229Q370 298 338.0 330.0Q306 362 260 362Q210 362 181.5 326.5Q153 291 153 227Q153 169 179.5 129.0Q206 89 259 89Q309 89 339.5 126.5Q370 164 370 229Z"/>
<path transform="translate(206.19,112.00) scale(0.04600,-0.04600)" d="M267 0H18V97H78V590H13V688H207V97H267Z"/>
</g>
<g fill="#C24A38">
<path transform="translate(219.30,112.00) scale(0.04600,-0.04600)" d="M37 0V163H190V0Z"/>
<path transform="translate(229.79,112.00) scale(0.04600,-0.04600)" d="M267 0H18V97H78V590H13V688H207V97H267Z"/>
<path transform="translate(242.90,112.00) scale(0.04600,-0.04600)" d="M87 531V665H216V531ZM281 0H32V97H92V353H27V451H221V97H281Z"/>
<path transform="translate(256.65,112.00) scale(0.04600,-0.04600)" d="M520 354H474L313 0H220L50 354H2V451H232V354H189L277 165H283L350 354H314V451H520Z"/>
<path transform="translate(280.89,112.00) scale(0.04600,-0.04600)" d="M463 142Q458 82 404.0 36.0Q350 -10 253 -10Q152 -10 86.5 47.0Q21 104 21 217Q21 321 80.5 390.5Q140 460 247 460Q341 460 399.5 406.0Q458 352 459 264Q459 231 452 199H156Q167 92 262 92Q314 92 332.5 117.0Q351 142 355 162ZM326 274Q330 308 311.5 338.0Q293 368 247 368Q207 368 185.0 342.0Q163 316 157 274Z"/>
</g>
</svg>
