<?xml version="1.0" encoding="UTF-8" standalone="no"?>
<svg
   id="Layer_1"
   data-name="Layer 1"
   viewBox="0 0 305.84216 178.20999"
   version="1.1"
   sodipodi:docname="HL-main.svg"
   width="305.84216"
   height="178.20999"
   inkscape:version="1.2.1 (9c6d41e410, 2022-07-14)"
   xmlns:inkscape="http://www.inkscape.org/namespaces/inkscape"
   xmlns:sodipodi="http://sodipodi.sourceforge.net/DTD/sodipodi-0.dtd"
   xmlns="http://www.w3.org/2000/svg"
   xmlns:svg="http://www.w3.org/2000/svg">
  <sodipodi:namedview
     id="namedview180"
     pagecolor="#ffffff"
     bordercolor="#000000"
     borderopacity="0.25"
     inkscape:showpageshadow="2"
     inkscape:pageopacity="0.0"
     inkscape:pagecheckerboard="0"
     inkscape:deskcolor="#d1d1d1"
     showgrid="false"
     inkscape:zoom="1.5277778"
     inkscape:cx="153.16364"
     inkscape:cy="78.872727"
     inkscape:window-width="1350"
     inkscape:window-height="1230"
     inkscape:window-x="208"
     inkscape:window-y="131"
     inkscape:window-maximized="0"
     inkscape:current-layer="Layer_1" />
  <defs
     id="defs7">
    <style
       id="style2">.cls-1{fill:none;}.cls-2{fill:#6eb7c0;}.cls-3{fill:#f0eede;}.cls-4{fill:#333;}.cls-5{clip-path:url(#clip-path);}.cls-6{fill:#db8336;}.cls-7{fill:#d2d2d1;}.cls-8{fill:#717171;}.cls-9{fill:#b8b8b9;}</style>
    <clipPath
       id="clip-path">
      <path
         class="cls-1"
         d="m 396.25,252.17 a 30.24,30.24 0 0 1 26.87,16.35 1,1 0 0 0 1.16,0.54 l 4.4,-1.05 a 1,1 0 0 0 0.7,-1.44 36.69,36.69 0 0 0 -66.75,-0.12 1,1 0 0 0 0.69,1.44 l 4.9,1.17 a 1,1 0 0 0 1.15,-0.54 30.26,30.26 0 0 1 26.88,-16.35 z"
         id="path4" />
    </clipPath>
  </defs>
  <rect
     class="cls-2"
     x="47.912159"
     y="0"
     width="209.99001"
     height="102.07"
     rx="12"
     id="rect9" />
  <rect
     class="cls-3"
     x="51.732136"
     y="3.0899963"
     width="202.34"
     height="95.900002"
     rx="12"
     id="rect11" />
  <path
     class="cls-2"
     d="m 56.77215,61.059998 h 192.18 a 2.74,2.74 0 0 1 2.74,2.74 v 24.26 a 8.81,8.81 0 0 1 -8.81,8.81 h -179.98 a 8.81,8.81 0 0 1 -8.81,-8.81 v -24.39 a 2.66,2.66 0 0 1 2.68,-2.61 z"
     id="path13" />
  <circle
     class="cls-3"
     cx="153.35216"
     cy="55.070007"
     r="27.18"
     id="circle15" />
  <path
     class="cls-2"
     d="m 195.38215,46.669998 a 1.17,1.17 0 0 0 0.88,-1.38 44.41,44.41 0 0 0 -86.72,-0.13 1.16,1.16 0 0 0 0.88,1.38 l 42.74,10.22 z"
     id="path17" />
  <circle
     class="cls-2"
     cx="152.92213"
     cy="55.639984"
     r="23.17"
     id="circle19" />
  <path
     class="cls-3"
     d="m 153.15215,25.229998 a 30.24,30.24 0 0 1 26.87,16.35 1,1 0 0 0 1.16,0.54 l 4.4,-1.05 a 1,1 0 0 0 0.7,-1.44 36.69,36.69 0 0 0 -66.75,-0.12 1,1 0 0 0 0.69,1.44 l 4.9,1.17 a 1,1 0 0 0 1.15,-0.54 30.26,30.26 0 0 1 26.88,-16.35 z"
     id="path21" />
  <circle
     class="cls-4"
     cx="176.96214"
     cy="44.859985"
     r="2.25"
     id="circle23" />
  <g
     class="cls-5"
     clip-path="url(#clip-path)"
     id="g29"
     transform="translate(-243.09785,-226.94)">
    <path
       class="cls-4"
       d="m 416.24,267.69 -0.17,-0.22 8.11,-6.36 0.22,0.29 z M 377,267 l -8,-6.45 0.24,-0.3 7.94,6.55 z m 34.73,-3.78 -0.21,-0.15 6.17,-8.25 0.3,0.23 z m -30.12,-0.61 -6.1,-8.3 0.31,-0.23 6,8.37 z m 24.58,-2.61 -0.25,-0.1 3.94,-9.51 0.35,0.14 z m -19,-0.44 -3.74,-9.6 0.35,-0.13 3.64,9.63 z m 12.81,-1.37 -0.29,-0.05 1.55,-10.14 0.35,0.06 z m -6.66,-0.17 -1.11,-10.24 h 0.38 l 1,10.25 z"
       id="path25" />
    <path
       class="cls-6"
       d="m 409.89,257.53 4.61,-5.79 a 0.21,0.21 0 0 1 0.35,0.21 l -2.94,6.58 a 0.22,0.22 0 0 1 -0.29,0.11 l -1.67,-0.81 a 0.19,0.19 0 0 1 -0.06,-0.3 z"
       id="path27" />
  </g>
  <path
     class="cls-3"
     d="m 180.90215,42.469998 a 1.35,1.35 0 0 1 -1.2,-0.74 29.94,29.94 0 0 0 -53.18,0 1.34,1.34 0 0 1 -1.52,0.7 l -4.9,-1.17 a 1.29,1.29 0 0 1 -0.89,-0.72 1.37,1.37 0 0 1 0,-1.17 37,37 0 0 1 67.34,0.12 1.37,1.37 0 0 1 0,1.17 1.29,1.29 0 0 1 -0.89,0.72 l -4.41,1.05 a 1.1,1.1 0 0 1 -0.35,0.04 z m -27.79,-17.56 a 30.48,30.48 0 0 1 27.16,16.53 0.72,0.72 0 0 0 0.79,0.37 l 4.41,-1.06 a 0.7,0.7 0 0 0 0.47,-0.37 0.75,0.75 0 0 0 0,-0.62 36.37,36.37 0 0 0 -66.16,-0.12 0.75,0.75 0 0 0 0,0.62 0.72,0.72 0 0 0 0.47,0.38 l 4.9,1.17 a 0.73,0.73 0 0 0 0.8,-0.37 30.48,30.48 0 0 1 27.2,-16.53 z"
     id="path31" />
  <circle
     class="cls-7"
     cx="152.37215"
     cy="55.75"
     r="20.530001"
     id="circle33" />
  <circle
     class="cls-4"
     cx="152.37215"
     cy="55.75"
     r="12.55"
     id="circle35" />
  <path
     class="cls-4"
     d="m 152.37215,69.899998 a 14.16,14.16 0 1 1 14.16,-14.15 14.18,14.18 0 0 1 -14.16,14.15 z m 0,-25.1 a 10.95,10.95 0 1 0 10.94,10.95 11,11 0 0 0 -10.94,-10.95 z"
     id="path37" />
  <circle
     class="cls-7"
     cx="152.37215"
     cy="55.75"
     r="10.46"
     id="circle39" />
  <rect
     class="cls-8"
     x="118.30215"
     y="85.079987"
     width="67.580002"
     height="9.0100002"
     rx="4.5100002"
     id="rect41" />
  <circle
     class="cls-9"
     cx="206.65215"
     cy="21.110001"
     r="8.3999996"
     id="circle43" />
  <circle
     class="cls-4"
     cx="206.65215"
     cy="21.110001"
     r="4.4699998"
     id="circle45" />
  <path
     class="cls-4"
     d="m 206.65215,27.189998 a 6.08,6.08 0 1 1 6.08,-6.08 6.09,6.09 0 0 1 -6.08,6.08 z m 0,-8.94 a 2.86,2.86 0 1 0 2.86,2.86 2.86,2.86 0 0 0 -2.86,-2.86 z"
     id="path47" />
  <circle
     class="cls-9"
     cx="206.65215"
     cy="21.110001"
     r="2.5799999"
     id="circle49" />
  <circle
     class="cls-9"
     cx="235.61214"
     cy="21.110001"
     r="8.3999996"
     id="circle51" />
  <circle
     class="cls-4"
     cx="235.61214"
     cy="21.110001"
     r="4.4699998"
     id="circle53" />
  <path
     class="cls-4"
     d="m 235.61215,27.189998 a 6.08,6.08 0 1 1 6.08,-6.08 6.09,6.09 0 0 1 -6.08,6.08 z m 0,-8.94 a 2.86,2.86 0 1 0 2.87,2.86 2.86,2.86 0 0 0 -2.87,-2.86 z"
     id="path55" />
  <circle
     class="cls-9"
     cx="235.61214"
     cy="21.110001"
     r="2.5799999"
     id="circle57" />
  <circle
     class="cls-9"
     cx="105.39214"
     cy="19.069992"
     r="3.54"
     id="circle59" />
  <circle
     class="cls-6"
     cx="105.39214"
     cy="19.069992"
     r="2.1700001"
     id="circle61" />
  <path
     class="cls-2"
     d="m 87.63215,32.949998 h -25.11 a 1,1 0 0 1 -1,-1 l -1.76,-21.73 a 1,1 0 0 1 1,-1.1200004 h 28.63 a 1,1 0 0 1 1,1.1200004 l -1.76,21.73 a 1,1 0 0 1 -1,1 z"
     id="path63" />
  <path
     class="cls-3"
     d="m 85.32215,27.159998 h -20.49 a 1.11,1.11 0 0 1 -1.1,-1 l -1.1,-12.59 a 1.11,1.11 0 0 1 1.11,-1.2 h 22.68 a 1.1,1.1 0 0 1 1.1,1.2 l -1.09,12.59 a 1.11,1.11 0 0 1 -1.11,1 z"
     id="path65" />
  <rect
     class="cls-6"
     x="49.684689"
     y="51.420929"
     width="0.63999999"
     height="7.5100002"
     transform="rotate(-30.96)"
     id="rect67" />
  <path
     class="cls-6"
     d="m 72.90215,25.139998 v 0 a 0.27,0.27 0 0 1 -0.12,-0.09 l -3.88,-6.44 a 0.19,0.19 0 0 1 0,-0.15 0.18,0.18 0 0 1 0.09,-0.12 l 0.55,-0.33 a 0.19,0.19 0 0 1 0.27,0.07 l 3.86,6.43 a 0.19,0.19 0 0 1 -0.06,0.27 l -0.56,0.33 a 0.17,0.17 0 0 1 -0.15,0.03 z m -3.59,-6.56 3.66,6.09 0.21,-0.12 -3.66,-6.1 z"
     id="path69" />
  <path
     class="cls-4"
     d="m 75.08215,23.939998 a 3.22,3.22 0 0 0 -3.18,3.22 h 6.44 a 3.22,3.22 0 0 0 -3.26,-3.22 z"
     id="path71" />
  <circle
     class="cls-9"
     cx="75.082146"
     cy="45.690002"
     r="8.3999996"
     id="circle73" />
  <circle
     class="cls-4"
     cx="75.082146"
     cy="45.690002"
     r="4.4699998"
     id="circle75" />
  <path
     class="cls-4"
     d="m 75.08215,51.779998 a 6.09,6.09 0 1 1 6.08,-6.09 6.09,6.09 0 0 1 -6.08,6.09 z m 0,-9 a 2.87,2.87 0 1 0 2.86,2.86 2.87,2.87 0 0 0 -2.86,-2.81 z"
     id="path77" />
  <circle
     class="cls-9"
     cx="75.082146"
     cy="45.690002"
     r="3.73"
     id="circle79" />
  <polygon
     class="cls-8"
     points="313.61,300.69 308.94,303.38 308.94,308.77 313.61,311.47 318.28,308.77 318.28,303.38 "
     id="polygon81"
     transform="translate(-243.09785,-226.94)" />
  <path
     class="cls-4"
     d="m 70.51215,83.199998 -3.51,-2 v -4.06 l 3.51,-2 3.52,2 v 4.06 z m -2.87,-2.4 2.87,1.65 2.87,-1.65 v -3.32 l -2.87,-1.66 -2.87,1.66 z"
     id="path83" />
  <circle
     class="cls-4"
     cx="70.512138"
     cy="79.139984"
     r="2.51"
     id="circle85" />
  <circle
     class="cls-7"
     cx="96.602165"
     cy="78.910004"
     r="8.3100004"
     id="circle87" />
  <circle
     class="cls-4"
     cx="96.602165"
     cy="78.910004"
     r="3.5"
     id="circle89" />
  <path
     class="cls-4"
     d="m 96.60215,84.059998 a 5.11,5.11 0 1 1 5.11,-5.11 5.12,5.12 0 0 1 -5.11,5.11 z m 0,-7 a 1.89,1.89 0 1 0 1.89,1.89 1.89,1.89 0 0 0 -1.89,-1.89 z"
     id="path91" />
  <circle
     class="cls-7"
     cx="96.602165"
     cy="78.910004"
     r="2.9100001"
     id="circle93" />
  <circle
     class="cls-7"
     cx="201.22215"
     cy="78.929993"
     r="8.9399996"
     id="circle95" />
  <circle
     class="cls-4"
     cx="201.22215"
     cy="78.929993"
     r="4.7600002"
     id="circle97" />
  <path
     class="cls-4"
     d="m 201.22215,85.299998 a 6.37,6.37 0 1 1 6.37,-6.37 6.38,6.38 0 0 1 -6.37,6.37 z m 0,-9.53 a 3.16,3.16 0 1 0 3.15,3.16 3.16,3.16 0 0 0 -3.15,-3.16 z"
     id="path99" />
  <circle
     class="cls-7"
     cx="201.22215"
     cy="78.929993"
     r="3.97"
     id="circle101" />
  <circle
     class="cls-7"
     cx="233.08214"
     cy="78.929993"
     r="8.9399996"
     id="circle103" />
  <circle
     class="cls-4"
     cx="233.08214"
     cy="78.929993"
     r="4.7600002"
     id="circle105" />
  <path
     class="cls-4"
     d="m 233.08215,85.299998 a 6.37,6.37 0 1 1 6.37,-6.37 6.38,6.38 0 0 1 -6.37,6.37 z m 0,-9.53 a 3.16,3.16 0 1 0 3.16,3.16 3.16,3.16 0 0 0 -3.16,-3.16 z"
     id="path107" />
  <circle
     class="cls-7"
     cx="233.08214"
     cy="78.929993"
     r="3.97"
     id="circle109" />
  <circle
     class="cls-4"
     cx="122.81216"
     cy="89.589996"
     r="1.9299999"
     id="circle111" />
  <circle
     class="cls-4"
     cx="181.37215"
     cy="89.589996"
     r="1.9299999"
     id="circle113" />
  <circle
     class="cls-9"
     cx="221.13216"
     cy="43.119995"
     r="8.3999996"
     id="circle115" />
  <circle
     class="cls-4"
     cx="221.13216"
     cy="43.119995"
     r="3.53"
     id="circle117" />
  <path
     class="cls-4"
     d="m 221.13215,48.259998 a 5.14,5.14 0 1 1 5.14,-5.14 5.14,5.14 0 0 1 -5.14,5.14 z m 0,-7.07 a 1.93,1.93 0 1 0 1.93,1.93 1.93,1.93 0 0 0 -1.93,-1.93 z"
     id="path119" />
  <circle
     class="cls-9"
     cx="221.13216"
     cy="43.119995"
     r="2.9400001"
     id="circle121" />
  <path
     class="cls-3"
     d="m 153.49215,140.12 a 15.1,15.1 0 0 1 -0.76,1.41 c -0.32,0.54 -0.71,1.12 -1.14,1.73 a 18,18 0 0 1 -1.64,2 8.06,8.06 0 0 1 -1.83,1.5 3.14,3.14 0 0 1 -0.65,0.3 2.51,2.51 0 0 1 -0.66,0.1 h -0.42 a 0.33,0.33 0 0 1 -0.23,-0.07 0.46,0.46 0 0 1 -0.07,-0.23 v -0.16 a 5.27,5.27 0 0 1 0.23,-1.34 c 0.15,-0.55 0.32,-1.13 0.49,-1.74 0,-0.13 0.09,-0.26 0.13,-0.39 0.04,-0.13 0.09,-0.26 0.13,-0.39 0.18,-0.53 0.35,-1 0.53,-1.51 l 0.39,-1.11 a 8.58,8.58 0 0 0 0.46,-1.63 9.32,9.32 0 0 0 0.13,-1.57 7.37,7.37 0 0 0 -1.31,-4.26 7.29,7.29 0 0 0 -3.86,-2.74 12.81,12.81 0 0 0 -2,-0.5 13.06,13.06 0 0 0 -2,-0.16 12.14,12.14 0 0 0 -5.07,1.11 14,14 0 0 0 -4.42,3.21 5.13,5.13 0 0 0 -1.57,-2.45 7.17,7.17 0 0 0 -2.49,-1.41 7.92,7.92 0 0 0 -1.8,-0.46 13.13,13.13 0 0 0 -1.86,-0.13 h -0.78 a 15.56,15.56 0 0 0 -3.77,0.75 17.09,17.09 0 0 0 -3.37,1.54 l 0.53,-1.44 h -12.16 l -3.46,10 h -0.07 l -0.13,0.26 a 0.65,0.65 0 0 0 -0.06,0.26 l -0.14,0.27 -0.13,0.26 a 9.32,9.32 0 0 1 -0.62,1.17 11.46,11.46 0 0 1 -1,1.44 13.24,13.24 0 0 1 -1.31,1.51 8.79,8.79 0 0 1 -1.44,1.18 l -0.75,0.36 a 1.78,1.78 0 0 1 -0.75,0.16 0.66,0.66 0 0 1 -0.36,0 1,1 0 0 1 -0.3,-0.1 0.5,0.5 0 0 1 -0.36,-0.32 1.66,1.66 0 0 1 -0.1,-0.53 v -0.26 a 0.68,0.68 0 0 1 0.07,-0.26 1.77,1.77 0 0 1 0.06,-0.43 1.8,1.8 0 0 1 0.14,-0.35 0.59,0.59 0 0 1 0.06,-0.3 0.35,0.35 0 0 0 0.07,-0.16 q 0.78,-2.43 1.6,-4.81 0.82,-2.38 1.67,-4.74 c 0.26,-0.79 0.53,-1.58 0.82,-2.39 0.29,-0.81 0.55,-1.6 0.81,-2.39 h -12.76 l -0.66,2 a 10.48,10.48 0 0 0 -3.53,-1.93 13.5,13.5 0 0 0 -4.06,-0.62 h -0.55 a 2,2 0 0 0 -0.56,0.07 16.1,16.1 0 0 0 -5.1,1.08 17.86,17.86 0 0 0 -4.39,2.38 15.59,15.59 0 0 0 -4.08,4.71 11.77,11.77 0 0 0 -1.55,4.8 c -0.24,0.4 -0.49,0.8 -0.78,1.22 a 20.39,20.39 0 0 1 -1.73,2.13 6.27,6.27 0 0 1 -1.93,1.47 2.11,2.11 0 0 1 -0.62,0.26 2.56,2.56 0 0 1 -0.62,0.07 1.19,1.19 0 0 1 -0.76,-0.2 0.65,0.65 0 0 1 -0.22,-0.52 2.74,2.74 0 0 1 0.16,-0.88 c 0.11,-0.33 0.23,-0.65 0.36,-0.95 0.78,-2.36 1.58,-4.7 2.39,-7 0.81,-2.3 1.6,-4.65 2.38,-7 0.78,-2.35 1.58,-4.64 2.39,-7 0.81,-2.36 1.6,-4.66 2.39,-7 h -16.62 l -5,14.66 h -7.27 c 0.35,-1.09 0.67,-2.15 0.95,-3.18 a 11,11 0 0 0 0.43,-3 9,9 0 0 0 -0.49,-2.91 10.08,10.08 0 0 0 -1.61,-2.85 11.13,11.13 0 0 0 -4.93,-3.59 18.14,18.14 0 0 0 -6.45,-1.12 c -0.65,0 -1.32,0 -2,0.07 a 14.58,14.58 0 0 0 -2,0.26 27,27 0 0 0 -12.68,5.72 q -5.73,4.54 -5.46,10.83 a 7.7,7.7 0 0 0 2.06,5.39 6.25,6.25 0 0 0 4.35,2 3.79,3.79 0 0 0 0.49,0 3.74,3.74 0 0 1 0.49,0 6.34,6.34 0 0 0 2.59,-1.21 8.25,8.25 0 0 0 2.25,-2.71 4.93,4.93 0 0 1 -3.1,-1.93 5.61,5.61 0 0 1 -1,-3.24 9.72,9.72 0 0 1 0.09,-1.31 10.71,10.71 0 0 1 0.3,-1.31 13.43,13.43 0 0 1 3.34,-5.49 7.15,7.15 0 0 1 5.16,-2.49 2.46,2.46 0 0 1 2.16,0.85 3.56,3.56 0 0 1 0.59,2.1 c 0,0.22 0,0.43 0,0.65 a 4.24,4.24 0 0 1 -0.1,0.59 6.81,6.81 0 0 1 -0.23,1.24 q -0.17,0.6 -0.36,1.11 a 0.75,0.75 0 0 1 0,0.23 1.46,1.46 0 0 1 -0.1,0.23 c -0.78,2.23 -1.56,4.45 -2.32,6.68 -0.76,2.23 -1.52,4.42 -2.26,6.6 -0.74,2.18 -1.49,4.44 -2.26,6.64 -0.77,2.2 -1.53,4.42 -2.32,6.64 h 17 l 5.95,-17.07 h 7.27 c -0.13,0.35 -0.27,0.71 -0.4,1.08 l -0.39,1.08 c -0.44,1.22 -0.84,2.45 -1.21,3.69 a 13.18,13.18 0 0 0 -0.55,3.77 c 0,3.09 1,5.3 3,6.6 a 12.45,12.45 0 0 0 6.9,2 h 0.69 a 5,5 0 0 0 0.75,-0.07 19.91,19.91 0 0 0 4.87,-1 13.5,13.5 0 0 0 4.09,-2.19 17.47,17.47 0 0 0 2.91,-2.92 10.41,10.41 0 0 0 1.28,1.93 9.09,9.09 0 0 0 3.76,2.88 12.88,12.88 0 0 0 4.42,0.92 h 0.62 a 2,2 0 0 0 0.55,-0.07 14,14 0 0 0 4.62,-1.21 14.77,14.77 0 0 0 4,-2.65 5.65,5.65 0 0 0 2.78,2.91 9.77,9.77 0 0 0 4,1 h 0.32 a 14,14 0 0 0 8.23,-2.25 l -0.57,1.66 h 12.23 l 0.53,-1.57 c 0.26,-0.78 0.52,-1.61 0.78,-2.48 0.26,-0.87 0.81,-2.34 1.37,-4 a 42.88,42.88 0 0 1 2.46,-5.53 18.14,18.14 0 0 1 2.12,-3.17 5,5 0 0 1 0.69,-0.69 3.86,3.86 0 0 1 0.75,-0.49 3,3 0 0 1 0.69,-0.3 2.84,2.84 0 0 1 0.69,-0.09 1.13,1.13 0 0 1 0.81,0.26 1.16,1.16 0 0 1 0.3,0.91 2.94,2.94 0 0 1 -0.07,0.62 5.63,5.63 0 0 1 -0.19,0.76 c -0.44,1.31 -0.89,2.61 -1.34,3.92 -0.45,1.31 -0.91,2.62 -1.35,3.93 -0.44,1.31 -0.94,2.68 -1.4,4 -0.46,1.32 -0.93,2.62 -1.41,3.92 h 13 l 1,-3 c 0.35,-1 0.72,-2.06 1.11,-3.11 0.39,-1.05 0.7,-2 1.05,-3 0.35,-1 0.7,-2 1,-3 0.13,-0.35 0.3,-0.75 0.52,-1.21 0.22,-0.46 0.46,-0.93 0.72,-1.41 a 13.93,13.93 0 0 1 1.83,-2.32 3.09,3.09 0 0 1 2.23,-1.08 0.83,0.83 0 0 1 0.75,0.36 1.65,1.65 0 0 1 0.23,0.88 4.25,4.25 0 0 1 -0.1,0.89 c -0.07,0.32 -0.14,0.66 -0.23,1 a 3.32,3.32 0 0 1 -0.2,0.66 4.84,4.84 0 0 0 -0.19,0.58 c -0.18,0.44 -0.33,0.83 -0.46,1.18 -0.13,0.35 -0.22,0.59 -0.26,0.72 -0.26,0.66 -0.51,1.34 -0.75,2.06 a 15.29,15.29 0 0 0 -0.56,2.19 c 0,0.31 -0.08,0.6 -0.1,0.89 -0.02,0.29 0,0.58 0,0.88 a 7.72,7.72 0 0 0 0.26,2 5.76,5.76 0 0 0 0.92,1.86 5.19,5.19 0 0 0 2.32,1.8 12.21,12.21 0 0 0 2.91,0.75 c 0.35,0 0.69,0.08 1,0.1 h 1 q 6.15,0 9.55,-3.5 a 32.31,32.31 0 0 0 5.83,-8.47 z m -72.1,-2.42 a 33.52,33.52 0 0 1 -1.17,3.53 c -0.22,0.48 -0.46,1 -0.72,1.64 a 16.59,16.59 0 0 1 -1,1.9 16.8,16.8 0 0 1 -2.51,3.46 4.52,4.52 0 0 1 -3.37,1.57 1.21,1.21 0 0 1 -1.18,-0.65 3.63,3.63 0 0 1 -0.33,-1.64 c 0,-0.26 0,-0.54 0,-0.85 a 3.77,3.77 0 0 1 0.17,-0.85 7.86,7.86 0 0 1 0.19,-1 c 0.09,-0.33 0.18,-0.65 0.27,-0.95 a 7.87,7.87 0 0 1 0.29,-1.05 c 0.11,-0.3 0.19,-0.52 0.23,-0.65 a 12.77,12.77 0 0 1 0.82,-1.74 c 0.37,-0.67 0.79,-1.36 1.27,-2.06 a 20.09,20.09 0 0 1 2.23,-2.81 7.5,7.5 0 0 1 2.48,-1.83 4.15,4.15 0 0 1 0.66,-0.2 3.49,3.49 0 0 1 0.65,-0.06 c 0.61,0 1,0.15 1.15,0.46 a 2.83,2.83 0 0 1 0.23,1.24 10.5,10.5 0 0 1 -0.36,2.54 z"
     id="path123" />
  <path
     class="cls-6"
     d="m 215.07215,147.71 a 4.45,4.45 0 0 1 -1,0.16 c -0.35,0 -0.69,0 -1,0 a 10.48,10.48 0 0 1 -2.72,-0.36 6.48,6.48 0 0 1 -2.45,-1.28 22.2,22.2 0 0 0 4.35,-5 15.86,15.86 0 0 0 2.39,-6.09 c 0.43,-0.08 0.88,-0.18 1.34,-0.29 0.46,-0.11 0.9,-0.23 1.34,-0.36 a 24.62,24.62 0 0 0 7.33,-3.89 14.62,14.62 0 0 0 4.9,-6.38 10.15,10.15 0 0 0 0.49,-1.7 9,9 0 0 0 0.17,-1.7 8.62,8.62 0 0 0 -0.36,-2.46 6.58,6.58 0 0 0 -1.21,-2.25 8.61,8.61 0 0 0 -4,-3 14.45,14.45 0 0 0 -5.07,-0.88 h -0.82 c -0.28,0 -0.58,0 -0.88,0 a 21.75,21.75 0 0 0 -5.79,1.31 19.52,19.52 0 0 0 -4.74,2.49 18.4,18.4 0 0 0 -5.5,6.54 c -1.22,2.48 -2.33,5.08 -3.34,7.78 -0.08,0.27 -0.17,0.52 -0.26,0.76 -0.09,0.24 -0.17,0.49 -0.26,0.75 a 6.67,6.67 0 0 1 -5.07,-1.67 5.67,5.67 0 0 1 -1.8,-4 c 0,-0.22 0,-0.44 0,-0.68 0,-0.24 0.06,-0.5 0.1,-0.76 a 8,8 0 0 1 0.88,-2.16 8.63,8.63 0 0 1 1.67,-2 l 0.89,-0.78 a 2.1,2.1 0 0 0 0.36,-0.4 c 0,0 0,-0.06 -0.07,-0.06 a 0.91,0.91 0 0 0 -0.42,-0.3 c -0.24,-0.1 -0.6,-0.25 -1.08,-0.42 a 11.76,11.76 0 0 0 -1.93,-0.59 9.37,9.37 0 0 0 -1.87,-0.2 8.35,8.35 0 0 0 -5.85,2.26 7.23,7.23 0 0 0 -2.46,5.53 8.18,8.18 0 0 0 0.33,2.22 9.4,9.4 0 0 0 1.05,2.36 11,11 0 0 0 4.48,4.22 20.28,20.28 0 0 0 5.92,2 c 0.52,0.09 1,0.17 1.54,0.23 a 10.58,10.58 0 0 0 1.47,0.1 l -2,5.69 c -0.22,-0.09 -0.46,-0.17 -0.72,-0.26 l -0.78,-0.26 c -1,-0.31 -2.12,-0.59 -3.34,-0.85 a 34.67,34.67 0 0 0 -3.8,-0.59 c -0.39,0 -0.77,-0.08 -1.14,-0.1 -0.37,-0.02 -0.75,0 -1.15,0 a 13.6,13.6 0 0 0 -5,0.88 5.23,5.23 0 0 0 -3.11,3.31 c 0,0.21 -0.08,0.43 -0.13,0.65 a 3.66,3.66 0 0 0 -0.06,0.65 4.37,4.37 0 0 0 0.39,1.84 6.16,6.16 0 0 0 1.05,1.57 10.53,10.53 0 0 0 4.44,2.48 23.58,23.58 0 0 0 5.63,0.92 h 1.18 a 33,33 0 0 0 4.12,-0.26 23,23 0 0 0 3.53,-0.72 l 0.66,-0.27 c 0.21,-0.08 0.41,-0.17 0.59,-0.26 q 0.59,-0.19 1.11,-0.42 a 4.08,4.08 0 0 1 1,-0.3 9.21,9.21 0 0 0 4.32,3.63 15.36,15.36 0 0 0 5.82,1.28 h 0.4 a 15,15 0 0 0 7.52,-1.83 8.32,8.32 0 0 0 4.32,-5.69 c 0.09,-0.31 0.16,-0.58 0.23,-0.82 0.07,-0.24 0.12,-0.49 0.16,-0.75 a 2.92,2.92 0 0 0 0.1,-0.4 1.86,1.86 0 0 1 0.1,-0.39 31,31 0 0 1 -3.11,1.21 19.93,19.93 0 0 1 -3.38,1.01 z m 1.73,-19.17 a 31.17,31.17 0 0 1 1.08,-3.27 23.75,23.75 0 0 1 2.62,-4.94 4.56,4.56 0 0 1 3.79,-2.26 1.46,1.46 0 0 1 1.31,0.59 2.43,2.43 0 0 1 0.39,1.38 v 0.39 a 1.32,1.32 0 0 1 -0.06,0.39 9.7,9.7 0 0 1 -0.2,1.05 c -0.09,0.35 -0.18,0.67 -0.26,1 a 1.45,1.45 0 0 0 -0.2,0.39 2.85,2.85 0 0 1 -0.13,0.33 c -0.09,0.17 -0.17,0.35 -0.26,0.52 a 3.83,3.83 0 0 1 -0.33,0.53 14.22,14.22 0 0 1 -3.24,3.66 17.17,17.17 0 0 1 -5.2,2.88 c 0.18,-0.72 0.4,-1.59 0.69,-2.64 z m -28.69,19.43 a 11,11 0 0 1 -3.66,0.92 0.73,0.73 0 0 1 -0.3,0.06 h -0.36 a 8.92,8.92 0 0 1 -1.34,-0.1 5.32,5.32 0 0 1 -1.34,-0.36 l -0.39,-0.13 a 1.75,1.75 0 0 1 -0.39,-0.19 4.65,4.65 0 0 1 -1,-0.69 1.28,1.28 0 0 1 -0.45,-0.95 v -0.23 a 0.23,0.23 0 0 1 0.06,-0.16 2.79,2.79 0 0 1 1.54,-1.57 7.46,7.46 0 0 1 2.45,-0.65 2,2 0 0 1 0.56,-0.07 h 0.56 a 10.3,10.3 0 0 1 1.3,0.07 5.65,5.65 0 0 1 1.05,0.19 24.31,24.31 0 0 1 2.55,0.79 10.09,10.09 0 0 1 2.29,1.17 13.4,13.4 0 0 1 -3.13,1.9 z"
     id="path125" />
  <path
     class="cls-6"
     d="m 232.34215,126.12 a 6.84,6.84 0 0 0 2.55,1.21 11.84,11.84 0 0 0 2.88,0.36 8.25,8.25 0 0 0 1.08,-0.07 l 1.07,-0.13 0.4,-0.09 0.46,-0.1 a 7.55,7.55 0 0 0 2.22,-1.24 4.14,4.14 0 0 0 1.44,-2.06 c 0,-0.18 0.07,-0.34 0.1,-0.49 a 3.46,3.46 0 0 0 0,-0.43 3.31,3.31 0 0 0 -1.15,-2.55 9.06,9.06 0 0 0 -2.51,-1.64 l -0.33,-0.13 -0.39,-0.13 a 8.65,8.65 0 0 0 -1.38,-0.29 10,10 0 0 0 -1.44,-0.1 h -0.72 a 10.7,10.7 0 0 0 -3,0.72 5.54,5.54 0 0 0 -2.39,1.77 4,4 0 0 0 -0.52,1 3,3 0 0 0 -0.2,1 3.75,3.75 0 0 0 0.49,1.8 5.06,5.06 0 0 0 1.34,1.59 z"
     id="path127" />
  <path
     class="cls-6"
     d="m 302.53215,140.12 a 19.05,19.05 0 0 1 -5.23,6.94 12.55,12.55 0 0 1 -8.24,2.74 5.74,5.74 0 0 1 -3.9,-1.27 5.64,5.64 0 0 1 -1.8,-3.63 22.72,22.72 0 0 0 3.27,-0.13 29.21,29.21 0 0 0 3.93,-0.72 21.78,21.78 0 0 0 6.74,-2.99 6,6 0 0 0 2.94,-5.56 4.42,4.42 0 0 0 -1.73,-3.53 10.11,10.11 0 0 0 -3.57,-1.83 2,2 0 0 0 -0.36,-0.1 3.34,3.34 0 0 1 -0.36,-0.1 13.32,13.32 0 0 0 -2.42,-0.46 26,26 0 0 0 -2.68,-0.13 c -0.61,0 -1.23,0 -1.86,0.07 -0.63,0.07 -1.28,0.11 -1.93,0.19 a 24.14,24.14 0 0 0 -8.51,2.78 10.76,10.76 0 0 0 -5.3,6.12 13,13 0 0 0 -0.49,1.93 10.79,10.79 0 0 0 -0.16,1.86 v 0 a 9.47,9.47 0 0 1 -0.69,0.73 3.18,3.18 0 0 1 -2.19,0.95 2.29,2.29 0 0 1 -0.43,0 l -0.49,-0.09 -0.49,-0.27 a 1.8,1.8 0 0 1 -0.42,-0.32 1.91,1.91 0 0 1 0.16,-0.27 1.07,1.07 0 0 0 0.17,-0.32 36,36 0 0 0 2.38,-4.55 12.31,12.31 0 0 0 1.08,-5 v -0.49 a 2.27,2.27 0 0 0 -0.06,-0.5 5.45,5.45 0 0 0 -0.62,-1.86 2.3,2.3 0 0 0 -1.54,-1.14 0.26,0.26 0 0 0 -0.2,-0.07 h -0.26 a 2.37,2.37 0 0 0 -1.57,0.62 8.79,8.79 0 0 0 -1.31,1.41 0.62,0.62 0 0 0 -0.1,0.16 0.35,0.35 0 0 1 -0.09,0.16 12.18,12.18 0 0 0 -1.38,3 18.09,18.09 0 0 0 -0.72,3.37 c 0,0.26 0,0.55 0,0.85 0,0.3 0,0.59 0,0.85 0,0.26 0,0.7 0,1 0,0.3 0.05,0.7 0.1,1.05 -0.18,0.26 -0.36,0.55 -0.56,0.88 a 9.1,9.1 0 0 1 -0.69,1 12.76,12.76 0 0 1 -2.19,2.29 4.12,4.12 0 0 1 -2.65,1.05 1,1 0 0 1 -0.95,-0.46 1.92,1.92 0 0 1 -0.29,-1 1.61,1.61 0 0 1 0.07,-0.49 l 0.13,-0.49 q 1.31,-3.66 2.55,-7.36 1.24,-3.7 2.48,-7.29 h -12.46 c -0.69,2.14 -1.43,4.26 -2.19,6.38 q -1,2.68 -1.91,5.44 c -0.23,0.44 -0.46,0.88 -0.7,1.3 a 12.42,12.42 0 0 1 -1.93,2.5 8.46,8.46 0 0 1 -1.64,1.21 2.84,2.84 0 0 1 -1.31,0.43 1.31,1.31 0 0 1 -1,-0.2 0.83,0.83 0 0 1 -0.3,-0.66 3.82,3.82 0 0 1 0.13,-0.88 7.09,7.09 0 0 1 0.33,-0.95 c 0.52,-1.62 1.06,-3.23 1.6,-4.83 0.54,-1.6 1.1,-3.18 1.67,-4.75 0.26,-0.79 0.54,-1.59 0.82,-2.4 0.28,-0.81 0.56,-1.61 0.82,-2.4 h -12.83 q -1.05,3 -2.07,6 -1.02,3 -2.06,6 c -0.08,0.26 -0.16,0.51 -0.23,0.76 -0.07,0.25 -0.14,0.49 -0.22,0.75 a 14.91,14.91 0 0 0 -0.3,1.54 12.69,12.69 0 0 0 -0.1,1.48 7.78,7.78 0 0 0 1.05,4 6.15,6.15 0 0 0 3.53,2.64 9.41,9.41 0 0 0 1.9,0.46 14.34,14.34 0 0 0 2,0.13 h 0.59 a 16.28,16.28 0 0 0 4.55,-0.91 12,12 0 0 0 3.83,-2.23 16.87,16.87 0 0 0 1.51,-1.54 7.86,7.86 0 0 0 1.33,2.26 6.79,6.79 0 0 0 5.53,2.23 13.81,13.81 0 0 0 7.69,-2.23 30.07,30.07 0 0 0 6.07,-5.17 4.88,4.88 0 0 0 1.8,1.34 5.34,5.34 0 0 0 2.06,0.42 4.71,4.71 0 0 0 0.53,0 4.53,4.53 0 0 1 0.52,0 8,8 0 0 0 2.13,-0.69 9.06,9.06 0 0 0 1,-0.54 9.47,9.47 0 0 0 1.52,2.21 14.84,14.84 0 0 0 6.25,4 24.35,24.35 0 0 0 2.94,0.75 19.63,19.63 0 0 0 3.08,0.36 3.26,3.26 0 0 0 0.72,0.07 h 0.78 a 25.54,25.54 0 0 0 4.88,-0.46 19.54,19.54 0 0 0 4.54,-1.44 14.74,14.74 0 0 0 5.63,-4.38 38.26,38.26 0 0 0 3.66,-5.95 z m -18.38,-0.39 a 10.31,10.31 0 0 1 0.52,-1.57 13.59,13.59 0 0 1 2.68,-4.19 5.36,5.36 0 0 1 4.19,-1.83 3,3 0 0 1 1.7,0.52 1.89,1.89 0 0 1 0.59,1.57 5,5 0 0 1 -2.13,4.19 13.58,13.58 0 0 1 -4.54,2.16 13.4,13.4 0 0 1 -1.7,0.39 c -0.57,0.09 -1.11,0.15 -1.64,0.2 q 0.14,-0.66 0.33,-1.44 z"
     id="path129" />
  <circle
     class="cls-6"
     cx="164.19215"
     cy="150.91998"
     r="7.1999998"
     id="circle131" />
  <path
     class="cls-3"
     d="m 29.60215,174.58 v -12.72 h 2.09 v 12.72 z"
     id="path133" />
  <path
     class="cls-3"
     d="m 34.17215,174.58 v -8.72 h 2 v 8.72 z m 6,0 v -5 a 1.9,1.9 0 0 0 -2,-2 2,2 0 0 0 -1,0.25 1.8,1.8 0 0 0 -0.71,0.71 2.08,2.08 0 0 0 -0.26,1 l -0.78,-0.44 a 3.52,3.52 0 0 1 0.44,-1.77 3.15,3.15 0 0 1 1.21,-1.22 3.35,3.35 0 0 1 1.73,-0.44 3.07,3.07 0 0 1 1.75,0.5 3.62,3.62 0 0 1 1.2,1.29 3.32,3.32 0 0 1 0.43,1.64 v 5.47 z"
     id="path135" />
  <path
     class="cls-3"
     d="m 43.32215,167.67 v -1.81 h 6.17 v 1.81 z m 2.08,6.91 v -12.36 h 2 v 12.36 z"
     id="path137" />
  <path
     class="cls-3"
     d="m 54.74215,174.76 a 4.74,4.74 0 0 1 -2.35,-0.59 4.31,4.31 0 0 1 -1.65,-1.63 4.44,4.44 0 0 1 -0.61,-2.32 4.46,4.46 0 0 1 2.22,-3.94 4.47,4.47 0 0 1 2.29,-0.6 4,4 0 0 1 3.62,2.1 4.58,4.58 0 0 1 0.54,2.24 3.37,3.37 0 0 1 0,0.44 c 0,0.16 -0.05,0.32 -0.08,0.5 h -7.16 v -1.63 h 6.12 l -0.74,0.65 a 3.44,3.44 0 0 0 -0.31,-1.34 2,2 0 0 0 -0.77,-0.84 2.49,2.49 0 0 0 -1.23,-0.29 2.6,2.6 0 0 0 -1.33,0.33 2.27,2.27 0 0 0 -0.87,0.92 2.92,2.92 0 0 0 -0.31,1.4 3,3 0 0 0 0.33,1.44 2.3,2.3 0 0 0 0.93,0.95 2.72,2.72 0 0 0 1.38,0.34 3.19,3.19 0 0 0 1.24,-0.24 2.4,2.4 0 0 0 1,-0.69 l 1.27,1.29 a 3.93,3.93 0 0 1 -1.54,1.13 5,5 0 0 1 -1.99,0.38 z"
     id="path139" />
  <path
     class="cls-3"
     d="m 60.39215,174.58 v -8.72 h 2 v 8.72 z m 2,-4.85 -0.69,-0.35 a 4.52,4.52 0 0 1 0.74,-2.68 2.56,2.56 0 0 1 2.23,-1 2.61,2.61 0 0 1 2.16,1 l -1.31,1.36 a 1.32,1.32 0 0 0 -0.53,-0.36 1.75,1.75 0 0 0 -0.67,-0.11 1.89,1.89 0 0 0 -1.42,0.47 2.26,2.26 0 0 0 -0.51,1.67 z"
     id="path141" />
  <path
     class="cls-3"
     d="m 71.19215,174.76 a 4,4 0 0 1 -2.14,-0.6 4.34,4.34 0 0 1 -1.5,-1.62 5,5 0 0 1 0,-4.62 4.47,4.47 0 0 1 1.5,-1.64 4,4 0 0 1 2.14,-0.6 3.65,3.65 0 0 1 1.77,0.42 3.45,3.45 0 0 1 1.23,1.17 3.24,3.24 0 0 1 0.45,1.69 v 2.51 a 3.27,3.27 0 0 1 -0.44,1.69 3.15,3.15 0 0 1 -1.23,1.17 3.61,3.61 0 0 1 -1.78,0.43 z m 0.33,-1.89 a 2.35,2.35 0 0 0 1.79,-0.74 2.76,2.76 0 0 0 0.68,-1.91 3,3 0 0 0 -0.31,-1.38 2.39,2.39 0 0 0 -0.87,-0.94 2.45,2.45 0 0 0 -1.29,-0.33 2.31,2.31 0 0 0 -2.16,1.27 3.14,3.14 0 0 0 0,2.76 2.31,2.31 0 0 0 2.16,1.27 z m 2.34,1.71 v -2.34 l 0.35,-2.13 -0.35,-2.11 v -2.14 h 2 v 8.72 z"
     id="path143" />
  <path
     class="cls-3"
     d="m 82.09215,174.76 a 4.63,4.63 0 0 1 -2.34,-0.6 4.42,4.42 0 0 1 -1.64,-1.63 4.77,4.77 0 0 1 0,-4.63 4.47,4.47 0 0 1 1.64,-1.62 4.85,4.85 0 0 1 4.24,-0.21 4.14,4.14 0 0 1 1.5,1.11 l -1.31,1.33 a 2.46,2.46 0 0 0 -0.92,-0.68 3,3 0 0 0 -1.17,-0.23 2.5,2.5 0 0 0 -1.32,0.34 2.32,2.32 0 0 0 -0.89,0.92 3,3 0 0 0 0,2.71 2.34,2.34 0 0 0 0.89,0.93 2.59,2.59 0 0 0 1.32,0.34 3,3 0 0 0 1.17,-0.23 2.46,2.46 0 0 0 0.92,-0.68 l 1.31,1.32 a 4.06,4.06 0 0 1 -1.5,1.12 4.65,4.65 0 0 1 -1.9,0.39 z"
     id="path145" />
  <path
     class="cls-3"
     d="m 86.02215,167.67 v -1.81 h 6.17 v 1.81 z m 2.08,6.91 v -12.36 h 2 v 12.36 z"
     id="path147" />
  <path
     class="cls-3"
     d="m 94.66215,164.26 a 1.13,1.13 0 0 1 -0.84,-0.35 1.23,1.23 0 0 1 0,-1.7 1.21,1.21 0 0 1 1.7,0 1.29,1.29 0 0 1 0,1.7 1.13,1.13 0 0 1 -0.86,0.35 z m -1,10.32 v -8.72 h 2 v 8.72 z"
     id="path149" />
  <path
     class="cls-3"
     d="m 100.84215,174.58 -4,-8.72 h 2.22 l 3,7.1 h -1.26 l 3.06,-7.1 h 2.12 l -4,8.72 z"
     id="path151" />
  <path
     class="cls-3"
     d="m 110.90215,174.76 a 4.75,4.75 0 0 1 -2.36,-0.59 4.47,4.47 0 0 1 -2.26,-3.95 4.53,4.53 0 0 1 0.6,-2.32 4.49,4.49 0 0 1 3.91,-2.22 4,4 0 0 1 2.15,0.56 4,4 0 0 1 1.47,1.54 4.58,4.58 0 0 1 0.54,2.24 3.37,3.37 0 0 1 0,0.44 c 0,0.16 0,0.32 -0.08,0.5 h -7.16 v -1.63 h 6.12 l -0.74,0.65 a 3.44,3.44 0 0 0 -0.31,-1.34 2,2 0 0 0 -0.77,-0.84 2.49,2.49 0 0 0 -1.23,-0.29 2.6,2.6 0 0 0 -1.33,0.33 2.27,2.27 0 0 0 -0.87,0.92 3,3 0 0 0 -0.31,1.4 3,3 0 0 0 0.33,1.44 2.3,2.3 0 0 0 0.93,0.95 2.72,2.72 0 0 0 1.38,0.34 3.15,3.15 0 0 0 1.24,-0.24 2.5,2.5 0 0 0 1,-0.69 l 1.27,1.29 a 4,4 0 0 1 -1.55,1.13 5,5 0 0 1 -1.97,0.38 z"
     id="path153" />
  <path
     class="cls-3"
     d="m 120.48215,174.58 v -12.72 h 1.42 l 0.63,2.4 v 10.32 z m 8.82,0 -7.62,-9.94 0.26,-2.78 7.61,9.94 z m 0,0 -0.64,-2.24 v -10.48 h 2.09 v 12.72 z"
     id="path155" />
  <path
     class="cls-3"
     d="m 137.29215,174.76 a 4.71,4.71 0 0 1 -2.35,-0.59 4.31,4.31 0 0 1 -1.65,-1.63 4.44,4.44 0 0 1 -0.61,-2.32 4.46,4.46 0 0 1 2.22,-3.94 4.46,4.46 0 0 1 2.28,-0.6 4.09,4.09 0 0 1 2.16,0.56 4,4 0 0 1 1.47,1.54 4.69,4.69 0 0 1 0.53,2.24 c 0,0.14 0,0.29 0,0.44 0,0.15 -0.05,0.32 -0.09,0.5 h -7.15 v -1.63 h 6.12 l -0.75,0.65 a 3.12,3.12 0 0 0 -0.31,-1.34 1.9,1.9 0 0 0 -0.77,-0.84 2.42,2.42 0 0 0 -1.22,-0.29 2.57,2.57 0 0 0 -1.33,0.33 2.15,2.15 0 0 0 -0.87,0.92 2.92,2.92 0 0 0 -0.31,1.4 3,3 0 0 0 0.33,1.44 2.22,2.22 0 0 0 0.92,0.95 2.72,2.72 0 0 0 1.38,0.34 3.2,3.2 0 0 0 1.25,-0.24 2.47,2.47 0 0 0 1,-0.69 l 1.27,1.29 a 4,4 0 0 1 -1.54,1.13 5,5 0 0 1 -1.98,0.38 z"
     id="path157" />
  <path
     class="cls-3"
     d="m 141.96215,167.67 v -1.81 h 6.18 v 1.81 z m 2.09,6.91 v -12.36 h 2 v 12.36 z"
     id="path159" />
  <path
     class="cls-3"
     d="m 152.26215,174.76 a 4.91,4.91 0 0 1 -1.39,-0.19 4.64,4.64 0 0 1 -1.24,-0.55 3.84,3.84 0 0 1 -1,-0.86 l 1.27,-1.27 a 2.91,2.91 0 0 0 1,0.79 3.21,3.21 0 0 0 1.34,0.26 2,2 0 0 0 1,-0.2 0.62,0.62 0 0 0 0.34,-0.58 0.73,0.73 0 0 0 -0.32,-0.62 3.6,3.6 0 0 0 -0.85,-0.37 l -1.09,-0.32 a 4.88,4.88 0 0 1 -1.09,-0.44 2.31,2.31 0 0 1 -0.84,-0.77 2.25,2.25 0 0 1 -0.33,-1.28 2.45,2.45 0 0 1 1.5,-2.36 4.08,4.08 0 0 1 1.71,-0.32 4.4,4.4 0 0 1 1.87,0.37 3.39,3.39 0 0 1 1.35,1.12 l -1.27,1.27 a 2.53,2.53 0 0 0 -0.87,-0.71 2.57,2.57 0 0 0 -1.13,-0.24 2,2 0 0 0 -0.93,0.18 0.6,0.6 0 0 0 -0.32,0.53 0.66,0.66 0 0 0 0.32,0.57 3.65,3.65 0 0 0 0.85,0.34 l 1.09,0.32 a 5,5 0 0 1 1.09,0.47 2.47,2.47 0 0 1 0.84,0.8 2.32,2.32 0 0 1 0.33,1.3 2.51,2.51 0 0 1 -0.89,2 3.68,3.68 0 0 1 -2.34,0.76 z"
     id="path161" />
  <path
     class="cls-6"
     d="m 179.30215,174.58 v -12.72 h 1.45 l 5.29,8.7 h -0.94 l 5.28,-8.7 h 1.46 v 12.72 h -2.09 v -9 l 0.47,0.13 -3.92,6.45 h -1.46 l -3.94,-6.5 0.47,-0.13 v 9 z"
     id="path163" />
  <path
     class="cls-6"
     d="m 197.98215,174.76 a 3.89,3.89 0 0 1 -2.13,-0.6 4.28,4.28 0 0 1 -1.51,-1.62 5,5 0 0 1 0,-4.62 4.41,4.41 0 0 1 1.51,-1.64 3.89,3.89 0 0 1 2.13,-0.6 3.62,3.62 0 0 1 1.77,0.42 3.29,3.29 0 0 1 1.23,1.17 3.24,3.24 0 0 1 0.45,1.69 v 2.51 a 3.27,3.27 0 0 1 -0.44,1.69 3.15,3.15 0 0 1 -1.23,1.17 3.58,3.58 0 0 1 -1.78,0.43 z m 0.33,-1.89 a 2.34,2.34 0 0 0 1.79,-0.74 2.76,2.76 0 0 0 0.68,-1.91 2.92,2.92 0 0 0 -0.31,-1.38 2.37,2.37 0 0 0 -0.86,-0.94 2.51,2.51 0 0 0 -1.3,-0.33 2.44,2.44 0 0 0 -1.28,0.33 2.49,2.49 0 0 0 -0.88,0.94 3.23,3.23 0 0 0 0,2.76 2.49,2.49 0 0 0 0.88,0.94 2.44,2.44 0 0 0 1.28,0.33 z m 2.34,1.71 v -2.34 l 0.35,-2.13 -0.35,-2.11 v -2.14 h 2 v 8.72 z"
     id="path165" />
  <path
     class="cls-6"
     d="m 208.52215,174.76 a 4,4 0 0 1 -2.14,-0.6 4.34,4.34 0 0 1 -1.5,-1.62 5,5 0 0 1 0,-4.62 4.47,4.47 0 0 1 1.5,-1.64 4,4 0 0 1 2.14,-0.6 3.62,3.62 0 0 1 1.77,0.42 3.37,3.37 0 0 1 1.23,1.17 3.24,3.24 0 0 1 0.45,1.69 v 2.51 a 3.27,3.27 0 0 1 -0.44,1.69 3.15,3.15 0 0 1 -1.23,1.17 3.58,3.58 0 0 1 -1.78,0.43 z m 0.33,-1.89 a 2.51,2.51 0 0 0 1.3,-0.33 2.44,2.44 0 0 0 0.86,-0.94 3.23,3.23 0 0 0 0,-2.76 2.44,2.44 0 0 0 -0.86,-0.94 2.51,2.51 0 0 0 -1.3,-0.33 2.34,2.34 0 0 0 -2.16,1.27 3.14,3.14 0 0 0 0,2.76 2.34,2.34 0 0 0 2.16,1.27 z m 4.34,1.71 h -2 v -2.34 l 0.35,-2.13 -0.35,-2.11 v -6.5 h 2 z"
     id="path167" />
  <path
     class="cls-6"
     d="m 219.46215,174.76 a 4.75,4.75 0 0 1 -2.36,-0.59 4.47,4.47 0 0 1 -2.26,-3.95 4.53,4.53 0 0 1 0.6,-2.32 4.49,4.49 0 0 1 3.91,-2.22 4,4 0 0 1 2.15,0.56 4,4 0 0 1 1.47,1.54 4.58,4.58 0 0 1 0.54,2.24 3.37,3.37 0 0 1 0,0.44 c 0,0.16 0,0.32 -0.08,0.5 h -7.16 v -1.63 h 6.12 l -0.74,0.65 a 3.44,3.44 0 0 0 -0.31,-1.34 2,2 0 0 0 -0.77,-0.84 2.46,2.46 0 0 0 -1.23,-0.29 2.6,2.6 0 0 0 -1.33,0.33 2.27,2.27 0 0 0 -0.87,0.92 3,3 0 0 0 -0.31,1.4 3,3 0 0 0 0.33,1.44 2.3,2.3 0 0 0 0.93,0.95 2.72,2.72 0 0 0 1.38,0.34 3.15,3.15 0 0 0 1.24,-0.24 2.43,2.43 0 0 0 1,-0.69 l 1.27,1.29 a 4,4 0 0 1 -1.55,1.13 4.94,4.94 0 0 1 -1.97,0.38 z"
     id="path169" />
  <path
     class="cls-6"
     d="m 229.01215,174.58 v -12.72 h 2.09 v 12.72 z m 1.44,-10.81 v -1.91 h 7 v 1.91 z m 0,5.23 v -1.83 h 6.5 V 169 Z m 0,5.58 v -1.91 h 7.12 v 1.91 z"
     id="path171" />
  <path
     class="cls-6"
     d="m 242.97215,174.76 a 4,4 0 0 1 -2.14,-0.6 4.34,4.34 0 0 1 -1.5,-1.62 5,5 0 0 1 0,-4.62 4.47,4.47 0 0 1 1.5,-1.64 4,4 0 0 1 2.14,-0.6 3.62,3.62 0 0 1 1.77,0.42 3.37,3.37 0 0 1 1.23,1.17 3.24,3.24 0 0 1 0.45,1.69 v 2.51 a 3.27,3.27 0 0 1 -0.44,1.69 3.15,3.15 0 0 1 -1.23,1.17 3.58,3.58 0 0 1 -1.78,0.43 z m 0.33,-1.89 a 2.35,2.35 0 0 0 1.79,-0.74 2.76,2.76 0 0 0 0.68,-1.91 3,3 0 0 0 -0.31,-1.38 2.44,2.44 0 0 0 -0.86,-0.94 2.51,2.51 0 0 0 -1.3,-0.33 2.41,2.41 0 0 0 -1.28,0.33 2.49,2.49 0 0 0 -0.88,0.94 3.14,3.14 0 0 0 0,2.76 2.49,2.49 0 0 0 0.88,0.94 2.41,2.41 0 0 0 1.28,0.33 z m 2.34,1.71 v -2.34 l 0.35,-2.13 -0.35,-2.11 v -2.14 h 2 v 8.72 z"
     id="path173" />
  <path
     class="cls-6"
     d="m 252.71215,174.76 a 5,5 0 0 1 -1.4,-0.19 4.78,4.78 0 0 1 -1.24,-0.55 4,4 0 0 1 -1,-0.86 l 1.27,-1.27 a 3,3 0 0 0 1.05,0.79 3.16,3.16 0 0 0 1.33,0.26 2,2 0 0 0 1,-0.2 0.63,0.63 0 0 0 0.35,-0.58 0.71,0.71 0 0 0 -0.33,-0.62 3.69,3.69 0 0 0 -0.84,-0.37 l -1.1,-0.32 a 4.88,4.88 0 0 1 -1.09,-0.44 2.48,2.48 0 0 1 -0.84,-0.77 2.25,2.25 0 0 1 -0.33,-1.28 2.45,2.45 0 0 1 1.5,-2.36 4.1,4.1 0 0 1 1.72,-0.32 4.38,4.38 0 0 1 1.86,0.37 3.49,3.49 0 0 1 1.36,1.12 l -1.28,1.27 a 2.44,2.44 0 0 0 -0.87,-0.71 2.54,2.54 0 0 0 -1.13,-0.24 1.92,1.92 0 0 0 -0.92,0.18 0.59,0.59 0 0 0 -0.33,0.53 0.65,0.65 0 0 0 0.33,0.57 3.75,3.75 0 0 0 0.84,0.34 l 1.09,0.32 a 4.79,4.79 0 0 1 1.09,0.47 2.51,2.51 0 0 1 0.85,0.8 2.32,2.32 0 0 1 0.33,1.3 2.49,2.49 0 0 1 -0.9,2 3.65,3.65 0 0 1 -2.37,0.76 z"
     id="path175" />
  <path
     class="cls-6"
     d="m 260.48215,174.67 -3.72,-8.81 h 2.2 l 2.54,6.47 h -0.6 l 2.69,-6.47 h 2.21 l -4.05,8.81 z m -2.58,3.54 2.7,-5.57 1.13,2 -1.62,3.54 z"
     id="path177" />
</svg>
